<svg width="300" height="268" viewBox="0 0 300 268" fill="none" xmlns="http://www.w3.org/2000/svg">
<rect x="0.00012207" width="300" height="268" fill="#FA7565"/>
<mask id="mask0" mask-type="alpha" maskUnits="userSpaceOnUse" x="0" y="0" width="300" height="268">
<rect width="300" height="268" fill="#FA7565"/>
</mask>
<g mask="url(#mask0)">
<path d="M272 160L274.694 168.292H283.413L276.359 173.416L279.053 181.708L272 176.584L264.947 181.708L267.641 173.416L260.587 168.292H269.306L272 160Z" fill="white"/>
<rect x="49.6553" y="202" width="20" height="20" transform="rotate(39.2543 49.6553 202)" fill="#FFFBFB"/>
<path d="M214 0L274.622 105H153.378L214 0Z" fill="#34378A"/>
<path d="M-10.6431 -15C-10.5351 -7.37803 -6.04037 9.76417 11.0743 17.3573C32.4676 26.8486 50.4837 48.8909 41.0281 112.958C31.5725 177.024 65.4782 188.472 117.604 160.079C157.925 138.116 219.855 136.591 235.744 208.874C248.454 266.701 301.435 266.677 326.336 259.437" stroke="#34378A" stroke-width="4"/>
<path d="M113.457 44.1709H233.117L237.781 18.4825C238.014 17.2093 238.691 16.06 239.692 15.2392C240.693 14.4185 241.952 13.9796 243.247 14.0007H267.805C269.255 14.0007 270.645 14.5766 271.67 15.6016C272.695 16.6266 273.271 18.0168 273.271 19.4663C273.271 20.9159 272.695 22.3061 271.67 23.3311C270.645 24.3561 269.255 24.9319 267.805 24.9319H247.765L243.156 50.4381C243.135 50.6218 243.105 50.8042 243.064 50.9846L232.425 109.576C231.573 114.182 229.135 118.344 225.534 121.339C221.933 124.335 217.396 125.974 212.712 125.973H143.08C138.643 125.975 134.33 124.503 130.818 121.79C127.307 119.076 124.795 115.274 123.678 110.979L108.173 51.0575C107.965 50.2506 107.944 49.4066 108.112 48.5903C108.28 47.774 108.632 47.0068 109.142 46.3475C109.652 45.6883 110.306 45.1543 111.053 44.7865C111.801 44.4187 112.623 44.2268 113.457 44.2255V44.1709Z" fill="white"/>
<path d="M210.508 132.058C214.05 132.058 217.513 133.108 220.458 135.076C223.403 137.044 225.699 139.841 227.054 143.113C228.41 146.386 228.764 149.987 228.073 153.461C227.382 156.935 225.677 160.126 223.172 162.63C220.667 165.135 217.476 166.841 214.002 167.532C210.528 168.223 206.927 167.868 203.655 166.513C200.382 165.157 197.586 162.862 195.618 159.917C193.65 156.972 192.599 153.509 192.599 149.967C192.604 145.219 194.493 140.666 197.85 137.309C201.208 133.951 205.76 132.063 210.508 132.058Z" fill="white"/>
<path d="M150.077 132.058C153.618 132.062 157.079 133.115 160.021 135.085C162.964 137.055 165.257 139.853 166.61 143.126C167.962 146.399 168.314 149.999 167.621 153.472C166.928 156.945 165.221 160.134 162.716 162.637C160.21 165.14 157.019 166.844 153.546 167.533C150.072 168.223 146.472 167.867 143.201 166.511C139.93 165.155 137.134 162.859 135.167 159.915C133.199 156.97 132.15 153.508 132.15 149.967C132.154 145.216 134.045 140.66 137.407 137.302C140.768 133.944 145.325 132.058 150.077 132.058Z" fill="white"/>
</g>
</svg>
