<svg width="300" height="268" viewBox="0 0 300 268" fill="none" xmlns="http://www.w3.org/2000/svg">
<rect x="-6.10352e-05" width="300" height="268" fill="#FA7565"/>
<mask id="mask0" mask-type="alpha" maskUnits="userSpaceOnUse" x="0" y="0" width="300" height="268">
<rect x="-6.10352e-05" width="300" height="268" fill="#FA7565"/>
</mask>
<g mask="url(#mask0)">
<path d="M279 -4L318.837 65H239.163L279 -4Z" fill="white"/>
<rect x="261.716" y="229" width="49.0793" height="49.0793" transform="rotate(11.4182 261.716 229)" fill="#34378A"/>
<rect x="35.6552" y="180" width="20" height="20" transform="rotate(39.2543 35.6552 180)" fill="#FFFBFB"/>
<path d="M205.79 37H122.359V43.6923H205.79V37Z" fill="#34378A"/>
<path d="M213.969 51.1282H114.179V57.8205H213.969V51.1282Z" fill="#34378A"/>
<path d="M106 65.2564V126.528H222V65.2564H106ZM148.682 113.441V78.3436C148.682 76.1128 151.21 74.6256 153.144 75.8154L183.482 93.3641C185.415 94.5538 185.415 97.3795 183.482 98.5692L153.144 115.969C151.21 117.159 148.682 115.672 148.682 113.441Z" fill="#34378A"/>
<path d="M0.356873 -5C0.464885 2.62197 4.95957 19.7642 22.0742 27.3573C43.4675 36.8486 61.4836 58.8909 52.028 122.958C42.5724 187.024 76.4781 198.472 128.604 170.079C168.925 148.116 230.855 146.591 246.744 218.874C259.454 276.701 312.435 276.677 337.336 269.437" stroke="white" stroke-width="4"/>
<path opacity="0.2" d="M-19.6431 24C-19.5351 31.622 -15.0404 48.7642 2.07423 56.3573C23.4675 65.8486 41.4836 87.8909 32.028 151.958C22.5724 216.024 56.4781 227.472 108.604 199.079C148.925 177.116 210.855 175.591 226.744 247.874C239.454 305.701 292.435 305.677 317.336 298.437" stroke="white" stroke-width="4"/>
</g>
</svg>
