<svg width="300" height="268" viewBox="0 0 300 268" fill="none" xmlns="http://www.w3.org/2000/svg">
<rect x="-0.00012207" width="300" height="268" fill="#34378A"/>
<mask id="mask0" mask-type="alpha" maskUnits="userSpaceOnUse" x="0" y="0" width="300" height="268">
<rect width="300" height="268" fill="#34378A"/>
</mask>
<g mask="url(#mask0)">
<path d="M261 46.5C261 27.4462 245.554 12 226.5 12H192V46.5C192 65.5538 207.446 81 226.5 81C245.554 81 261 65.5538 261 46.5Z" fill="#FA7565"/>
<path d="M257 232.5C257 223.94 250.06 217 241.5 217C232.939 217 226 223.94 226 232.5C226 241.06 232.939 248 241.5 248C250.06 248 257 241.06 257 232.5Z" fill="#FA7565"/>
<path d="M-45.7069 287.098C-43.4837 279.807 -34.3996 264.59 -15.8485 262.056C7.34035 258.888 30.7752 242.724 39.5075 178.555C48.2398 114.386 83.9917 112.818 126.166 154.585C158.79 186.894 217.854 205.58 253.215 140.566C281.505 88.5545 332.389 103.31 354.294 117.188" stroke="#FA7565" stroke-width="4"/>
<path d="M47.9999 224C47.9999 212.954 39.0456 204 27.9999 204H18.9999C17.8953 204 16.9999 204.895 16.9999 206V233C16.9999 234.105 17.8953 235 18.9999 235H47.9999V224Z" fill="white"/>
<path d="M231 55.759V32H107V55.759H231ZM168.721 41.772H216.406C217.587 41.772 218.544 42.729 218.544 43.91C218.544 45.091 217.587 46.048 216.406 46.048H168.721C167.54 46.048 166.583 45.091 166.583 43.91C166.583 42.729 167.54 41.772 168.721 41.772ZM139.93 41.772H150.527C151.708 41.772 152.665 42.729 152.665 43.91C152.665 45.091 151.708 46.048 150.527 46.048H139.93C138.749 46.048 137.792 45.091 137.792 43.91C137.792 42.729 138.749 41.772 139.93 41.772ZM118.805 41.772H129.402C130.583 41.772 131.54 42.729 131.54 43.91C131.54 45.091 130.583 46.048 129.402 46.048H118.805C117.624 46.048 116.667 45.091 116.667 43.91C116.667 42.729 117.624 41.772 118.805 41.772Z" fill="white"/>
<path d="M205.499 107.55C203.325 104.867 200.32 102.878 197.038 101.95C196.143 101.697 195.516 100.897 195.483 99.968C195.116 89.51 186.608 81.319 176.114 81.319C171.7 81.319 167.383 82.845 163.957 85.616C160.985 88.071 158.758 91.328 157.704 94.774C157.531 95.34 157.131 95.809 156.599 96.069C156.066 96.329 155.45 96.357 154.898 96.146C153.334 95.55 151.724 95.235 150.243 95.235C143.466 95.235 137.897 100.782 137.828 107.601C137.82 108.431 137.332 109.18 136.577 109.525C131.787 111.71 128.692 116.504 128.692 121.738C128.692 129.17 134.733 135.215 142.157 135.215H192.363C201.705 135.215 209.306 127.609 209.306 118.259C209.306 114.317 207.958 110.52 205.512 107.568C205.509 107.563 205.505 107.556 205.499 107.55Z" fill="white"/>
<path d="M107 60.035V156H231V60.035H107ZM192.365 139.492H142.158C132.376 139.492 124.417 131.528 124.417 121.739C124.417 115.277 127.989 109.326 133.619 106.23C134.382 97.697 141.578 90.96 150.244 90.96C151.574 90.96 152.966 91.143 154.352 91.496C155.811 88.027 158.209 84.82 161.252 82.307C165.452 78.909 170.725 77.044 176.115 77.044C188.413 77.044 198.478 86.268 199.657 98.308C203.204 99.606 206.414 101.892 208.814 104.85C211.89 108.566 213.584 113.328 213.584 118.26C213.583 129.967 204.065 139.492 192.365 139.492Z" fill="white"/>
</g>
</svg>
