<svg width="96" height="89" viewBox="0 0 96 89" fill="none" xmlns="http://www.w3.org/2000/svg">
<path d="M15.5178 31.2612C16.1078 33.1012 17.2078 34.5412 18.7778 35.6612C20.1178 36.6212 21.7678 35.3112 21.8378 33.9012C21.9578 31.5712 20.7778 29.5012 18.9078 28.1812C17.7778 27.3712 16.2978 28.2512 15.9178 29.4012C15.2878 31.3112 15.3178 34.4712 17.3478 35.5712C19.6378 36.8112 21.8878 34.5012 22.1878 32.3412C22.4878 30.1912 20.8978 27.8112 18.4978 28.5212C16.3278 29.1612 15.4978 32.3012 17.6578 33.5112C19.9478 34.7912 22.0078 31.2712 19.7178 29.9912C20.5178 30.4312 20.7978 32.2312 19.6578 32.4212C19.3178 32.3712 18.9678 32.3212 18.6278 32.2712C18.4378 32.1612 18.2978 32.0112 18.2178 31.8112C18.1978 31.6312 18.1878 31.6112 18.1878 31.7612C18.1778 31.9112 18.1878 31.9012 18.1978 31.7312C18.1978 31.8712 18.1378 31.9712 18.1278 31.9712C18.1578 31.9312 18.1878 31.9012 18.2478 31.8912C18.8078 31.7312 19.3278 31.9512 19.8078 32.5412C19.8178 32.4412 19.6678 32.0712 19.6678 32.0412C19.5778 31.4812 19.6878 31.0112 19.8578 30.4812C18.8578 30.8912 17.8678 31.2912 16.8678 31.7012C17.1178 31.8812 17.4278 32.2512 17.6178 32.7012C17.7578 33.0112 17.7978 33.3812 17.7778 33.9112C18.7978 33.3212 19.8178 32.7412 20.8378 32.1512C20.2078 31.7012 19.6878 30.9312 19.4478 30.1812C19.1078 29.1312 18.0378 28.4612 16.9478 28.7612C15.9078 29.0412 15.1778 30.2112 15.5178 31.2612Z" fill="black"/>
<path d="M33.7177 24.0912C33.6477 20.9512 28.8977 21.0712 28.8177 24.1612C28.7677 26.2312 30.8877 28.5712 33.0077 28.4512C35.6677 28.3012 36.4877 25.3412 35.1877 23.3312C33.9777 21.4712 31.6377 20.6012 29.5077 20.5112C28.0677 20.4512 27.3477 21.8512 27.5477 23.0912C27.9677 25.6912 30.2677 27.9812 32.8877 28.3612C33.9777 28.5212 35.0677 28.1112 35.3877 26.9412C36.0177 24.6812 34.7377 22.5812 32.6277 21.7612C31.5977 21.3612 30.3977 22.2012 30.1277 23.1812C29.8077 24.3312 30.5177 25.2812 31.5477 25.6812C31.5077 25.6712 31.4777 25.6612 31.4377 25.6412C31.3277 25.5412 31.3277 25.5412 31.4277 25.6412C31.4277 25.6412 31.4877 25.6512 31.5277 25.8112C31.4577 25.5712 31.4777 25.8912 31.5177 25.9112C31.4177 25.8712 31.5977 25.3312 31.4577 25.8412C32.2877 25.3712 33.1277 24.8912 33.9577 24.4212C32.5077 24.2112 31.6977 23.4512 31.4677 22.0012C30.8177 22.8612 30.1577 23.7212 29.5077 24.5812C29.9177 24.6012 30.3678 24.6712 30.7878 24.8512C31.0178 24.9512 31.2877 25.0912 31.4877 25.2412C31.4777 25.2312 31.9378 25.7112 31.7278 25.4712C32.0878 25.8912 31.6477 25.5112 31.7777 25.4012C31.8177 24.8612 32.1978 24.5212 32.9178 24.3812C33.0078 24.3812 33.0977 24.3912 33.1877 24.4212C33.2177 24.5812 32.9778 24.1912 32.9178 24.1312C33.0178 24.2212 32.9877 24.1712 32.8477 23.9812C32.8977 24.1512 32.9077 24.3212 32.8877 24.4912C32.7177 24.7912 32.5377 25.0912 32.3677 25.3912C31.7777 25.4712 31.1877 25.5512 30.5977 25.6212C30.3577 25.3812 30.1077 25.1312 29.8677 24.8912C29.8877 24.9212 29.9077 24.9512 29.9277 24.9912C29.8377 24.6512 29.7377 24.3012 29.6477 23.9612C29.6477 24.0012 29.6477 24.0412 29.6477 24.0812C29.7077 26.7112 33.7777 26.7212 33.7177 24.0912Z" fill="black"/>
<path d="M47.1877 10.1912C45.4977 9.30118 43.7778 10.3712 43.3578 12.1412C43.0278 13.5612 43.7278 15.2712 44.7678 16.2512C45.8978 17.3212 47.5977 17.6112 48.9477 16.7712C50.1777 16.0012 50.6177 14.4312 50.3177 13.0712C49.9877 11.5912 48.7077 10.5212 47.1977 10.4712C45.5477 10.4112 44.0977 11.6012 43.5677 13.1112C42.4377 16.3212 46.1977 19.0012 49.0577 17.7812C51.0077 16.9512 51.4178 14.7612 50.4578 12.9912C49.6778 11.5512 48.3178 10.3612 46.8278 9.70118C45.8278 9.25118 44.6378 9.41118 44.0378 10.4312C43.5278 11.3012 43.7578 12.7712 44.7678 13.2212C45.2078 13.4212 45.6478 13.6412 46.0178 13.9512C46.2278 14.1212 46.4378 14.3312 46.6078 14.5512C46.6578 14.6212 46.8277 15.0012 46.9277 15.0512C46.7277 14.9412 47.4977 14.0212 47.4977 14.0412C47.6677 14.0412 47.6178 14.0512 47.3578 14.0412C47.3878 14.0412 47.4177 14.0412 47.4477 14.0412C46.9977 13.9312 47.6478 14.0512 47.4178 14.2812C47.3978 14.3012 47.4378 14.3912 47.4078 14.4312C47.2378 14.6812 46.7578 14.5012 46.5878 14.3812C46.4278 14.2612 46.4078 14.1512 46.3278 14.0012C46.3078 13.9112 46.3178 13.8312 46.3578 13.7412C46.2778 13.9912 46.3077 13.9812 46.4477 13.7012C46.4977 13.5612 46.5878 13.4512 46.7178 13.3812C46.9278 13.2312 47.1378 13.2012 47.3578 13.2912C47.7578 13.2012 47.5577 13.6312 47.4877 13.2512C47.5077 13.3512 47.3677 12.9712 47.3677 12.9712C47.3377 12.8312 47.3278 12.8112 47.3378 12.9212C47.3178 13.2212 47.1578 13.4712 46.8578 13.6512C46.5178 13.7412 46.1678 13.8412 45.8278 13.9312C45.8778 13.9312 45.9277 13.9312 45.9877 13.9212C45.6477 13.8312 45.2978 13.7312 44.9578 13.6412C45.0078 13.6712 45.0577 13.6912 45.1177 13.7212C47.4577 14.9212 49.5177 11.4012 47.1877 10.1912Z" fill="black"/>
<path d="M58.0178 8.55118C58.0678 11.1712 60.0977 13.1812 62.6977 13.2712C63.8177 13.3112 64.7077 12.3012 64.7377 11.2312C64.8377 6.99118 61.4977 3.58118 57.3877 3.15118C56.5577 3.06118 55.5877 3.84118 55.4277 4.64118C54.6577 8.41118 57.7677 12.5012 61.8077 12.0412C62.9877 11.9012 64.2978 10.8312 63.7678 9.46118C62.9378 7.31118 61.0877 6.26118 58.8177 6.64118C57.7377 6.83118 57.1278 8.16118 57.3978 9.14118C57.7178 10.2912 58.8178 10.7512 59.8978 10.5612C59.6478 10.6012 59.8978 10.6712 59.8378 10.5312C60.4878 9.67118 61.1477 8.81118 61.7977 7.95118C60.5677 8.09118 59.0478 7.12118 59.3378 5.71118C58.6878 6.21118 58.0277 6.71118 57.3777 7.20118C59.3277 7.40118 60.6978 9.35118 60.6578 11.2112C61.3378 10.5312 62.0177 9.85118 62.6977 9.17118C62.3177 9.16118 62.0978 8.88118 62.0878 8.52118C62.0378 5.93118 57.9678 5.92118 58.0178 8.55118Z" fill="black"/>
<path d="M44.0378 29.8012C42.8078 30.5012 41.4678 31.4512 40.6778 32.6612C39.8378 33.9512 40.0578 35.6312 41.1678 36.6812C42.1578 37.6212 43.6478 37.9712 44.9378 37.5412C46.3478 37.0812 47.2578 35.9512 48.1078 34.8112C48.8978 33.7512 48.0578 32.1212 46.8878 31.8212C45.1078 31.3612 43.2378 31.6112 41.6778 32.6012C40.7478 33.1912 40.3778 34.4112 40.9478 35.3912C41.4878 36.3212 42.7978 36.7112 43.7378 36.1212C44.4078 35.6912 45.0478 35.5612 45.8078 35.7512C45.3978 34.7512 44.9978 33.7612 44.5878 32.7612C44.3778 33.0412 43.9778 33.4312 43.7878 33.6212C43.3978 34.0012 43.6178 33.5712 43.7678 33.6712C43.9778 33.7112 43.9678 33.7012 43.7178 33.6412C43.7878 33.6412 43.8478 33.6712 43.9078 33.7112C43.9678 33.7512 44.0278 33.8012 44.0578 33.8712C44.2678 34.2212 44.2578 34.5712 44.0378 34.9212C44.0478 34.9312 44.6078 34.3512 44.6378 34.3312C45.0778 33.9312 45.5578 33.6212 46.0778 33.3312C48.3678 32.0212 46.3178 28.5012 44.0378 29.8012Z" fill="black"/>
<path d="M31.2678 40.1912C31.7178 41.5112 32.1677 42.8312 32.6177 44.1512C33.0377 45.3912 34.4078 46.0512 35.6078 45.3712C37.7178 44.1612 38.3478 41.0712 36.6578 39.2412C35.8778 38.4012 34.7377 37.9212 33.5777 37.9812C32.1977 38.0512 31.1478 38.7212 30.3378 39.8012C29.6778 40.6812 30.1977 42.0812 31.0677 42.5912C32.1077 43.2012 33.1878 42.7412 33.8578 41.8612C33.7278 42.0312 33.7277 42.0012 33.5477 42.1112C33.7577 42.0612 33.7978 42.0412 33.6578 42.0612C33.5178 42.0712 33.5578 42.0712 33.7778 42.0612C33.4278 41.9512 33.9577 42.1112 33.7477 42.0512C33.6777 42.0312 33.6278 41.9912 33.5878 41.9212C33.7478 42.0812 33.7678 42.1012 33.6678 42.0012C33.4078 41.6812 33.6678 41.9412 33.5978 41.9712C33.5678 41.7612 33.5577 41.7312 33.5677 41.8912C33.5577 42.0412 33.5678 42.0112 33.5878 41.8112C33.5678 41.8712 33.5578 41.9312 33.5378 41.9912C33.6278 41.7912 33.6177 41.7912 33.5077 42.0012C33.5577 41.8712 33.9277 41.6712 33.5677 41.8812C34.5677 42.2912 35.5577 42.6912 36.5577 43.1012C36.1077 41.7812 35.6578 40.4612 35.2078 39.1412C34.8478 38.1012 33.8078 37.4112 32.7078 37.7212C31.6778 37.9712 30.9078 39.1512 31.2678 40.1912Z" fill="black"/>
<path d="M56.6978 21.1512C55.8478 21.7912 55.3378 22.5612 55.2578 23.6412C55.2078 24.3512 55.4178 25.1212 55.8178 25.7012C56.9778 27.4112 59.3078 27.5712 60.7478 26.1012C62.2178 24.6212 61.9877 22.2112 60.2977 21.0312C58.9377 20.0812 56.8878 20.2812 55.7578 21.5012C55.0378 22.2812 54.9278 23.6212 55.7578 24.3812C56.5478 25.1012 57.8678 25.2212 58.6378 24.3812C58.8878 24.1112 58.1978 24.6112 58.6078 24.4012C58.7478 24.3312 58.6677 24.3612 58.3677 24.5012C58.5777 24.4512 58.5078 24.4512 58.1478 24.5112C58.1978 24.5012 58.2577 24.5012 58.3077 24.5012C58.4677 24.5012 58.3778 24.4912 58.0378 24.4512C58.1078 24.4612 58.1778 24.4812 58.2478 24.5012C58.1478 24.4612 58.0578 24.4212 57.9578 24.3712C58.0178 24.4012 58.0878 24.4412 58.1478 24.4812C57.8878 24.2612 57.8278 24.2212 57.9778 24.3712C57.9178 24.2912 57.8478 24.2112 57.7878 24.1312C57.6778 23.8112 57.6478 23.7512 57.7078 23.9612C57.6778 23.6312 57.6678 23.5412 57.6678 23.7112C57.6578 23.8712 57.6778 23.7912 57.7078 23.4612C57.6478 23.6612 57.6678 23.6112 57.7878 23.3012C57.6978 23.4412 57.7078 23.4412 57.8178 23.2912C58.2278 22.9812 57.2178 23.7012 57.9678 23.1612C57.9378 23.1812 57.8977 23.2012 57.8677 23.2212C58.0477 23.1012 58.2478 23.0512 58.4578 23.0612C58.2878 23.0612 58.3078 23.0612 58.5078 23.0812C58.6778 23.0812 58.8278 23.1312 58.9778 23.2312C58.7978 23.1212 58.8578 23.1712 59.1478 23.3812C59.0478 23.2712 59.0577 23.2912 59.1777 23.4412C59.2877 23.6012 59.3078 23.6112 59.2278 23.4812C59.3578 23.8212 59.3878 23.8912 59.3178 23.6912C59.2378 23.3412 59.3178 24.2112 59.3278 23.8412C59.3378 23.4712 59.1977 24.3212 59.3077 23.9912C59.1477 24.3212 59.1178 24.4012 59.2178 24.2112C59.1078 24.4012 58.9578 24.5512 58.7578 24.6612C59.1978 24.3312 59.5378 23.9912 59.6978 23.4412C59.8278 22.9512 59.7677 22.3012 59.4877 21.8712C58.9477 21.0412 57.6178 20.4712 56.6978 21.1512Z" fill="black"/>
<path d="M29.5077 50.2912C28.0577 50.8612 26.9578 51.9612 26.6078 53.5212C26.2678 55.0512 26.6377 56.6312 27.7577 57.7512C28.5277 58.5212 29.8677 58.5412 30.6377 57.7512C31.8377 56.5112 32.7778 54.7412 31.7278 53.0912C30.7978 51.6212 28.5377 51.1112 27.3077 52.5112C26.5777 53.3312 26.4977 54.5812 27.3077 55.3912C28.0477 56.1312 29.4577 56.2212 30.1877 55.3912C29.5277 55.8712 28.9378 55.8812 28.4178 55.4312C28.1978 55.1712 28.0977 54.8712 28.1277 54.5312C28.0677 54.4712 27.8378 54.7912 27.7678 54.8712C28.7278 54.8712 29.6878 54.8712 30.6478 54.8712C30.4078 54.6312 30.6178 54.9612 30.5778 54.7912C30.5178 54.6912 30.5177 54.6912 30.5677 54.7912C30.6077 54.9012 30.6178 54.8912 30.5778 54.7812C30.5378 54.6312 30.5377 54.6712 30.5677 54.8812C30.5677 54.8212 30.5577 54.7612 30.5577 54.7012C30.5577 54.6412 30.5577 54.5812 30.5577 54.5212C30.5177 54.7312 30.5177 54.7612 30.5477 54.6112C30.5477 54.5712 30.6478 54.2112 30.5778 54.4212C30.4978 54.6512 30.6878 54.2312 30.7178 54.1812C30.5778 54.4112 30.6277 54.1912 30.7377 54.1812C30.5777 54.2912 30.5577 54.3012 30.6777 54.2212C30.8077 54.1512 30.7778 54.1512 30.5978 54.2312C31.6178 53.8312 32.3278 52.8612 32.0178 51.7312C31.7478 50.7412 30.5377 49.8912 29.5077 50.2912Z" fill="black"/>
<path d="M54.0778 51.1712C54.3578 51.5512 54.1078 50.7812 54.1378 51.2812C54.1578 51.5812 54.1878 51.8812 54.2278 52.1812C54.3378 52.9412 54.6278 53.6612 55.1978 54.2012C56.2478 55.1912 57.8478 55.1912 59.0278 54.4312C60.2978 53.6212 60.8978 52.2012 60.6478 50.7312C60.4178 49.3912 59.5378 48.3112 58.5578 47.4212C57.8278 46.7512 56.9578 46.7112 56.0878 47.1012C55.2378 47.4812 54.4678 48.0812 53.8578 48.7812C53.1278 49.6412 53.0578 50.8012 53.8578 51.6612C55.2278 53.1212 57.4378 53.0912 58.8878 51.8012C59.7078 51.0712 59.6278 49.6712 58.8878 48.9212C58.0678 48.1012 56.8378 48.1912 56.0078 48.9212C56.1578 48.7912 56.3278 48.6912 56.5278 48.7312C56.6878 48.7612 57.0078 49.0812 56.7278 48.7812C56.7278 49.7412 56.7278 50.7012 56.7278 51.6612C57.1978 51.1112 57.4578 50.9212 58.1278 50.6112C57.3078 50.5012 56.4878 50.4012 55.6578 50.2912C56.0978 50.6912 56.4878 51.0012 56.6578 51.4512C56.5878 51.3112 56.5878 51.3512 56.6678 51.5812C56.6178 51.4912 56.6178 51.3912 56.6478 51.2812C56.6678 51.1612 56.7178 51.0612 56.8078 50.9812C56.6378 51.1412 56.6378 51.1412 56.8078 50.9912C57.4078 50.8712 57.6778 51.0012 58.1478 51.4312C58.2078 51.5012 58.2378 51.5912 58.2278 51.6812C58.2178 51.5412 58.2078 51.4012 58.1978 51.2612C58.1378 50.4912 58.0478 49.7312 57.5778 49.0912C56.9378 48.2012 55.8078 47.7712 54.7878 48.3612C53.9278 48.9012 53.4278 50.2712 54.0778 51.1712Z" fill="black"/>
<path d="M60.6177 33.1512C59.8277 34.7712 59.8777 36.8212 61.2077 38.1612C62.5377 39.5112 64.6678 39.5912 66.1478 38.4512C67.6878 37.2612 67.9477 35.0112 66.5477 33.6012C65.3077 32.3412 63.0577 32.1012 61.8077 33.4912C61.0977 34.2812 60.9677 35.6012 61.8077 36.3712C62.5877 37.0812 63.9277 37.2212 64.6877 36.3712C64.8077 36.2412 64.8078 36.2412 64.6678 36.3612C64.5678 36.4612 64.4377 36.5312 64.2977 36.5612C64.1977 36.5712 64.0977 36.5912 63.9977 36.6012C64.1677 36.6112 64.1678 36.6012 63.9778 36.5912C63.7878 36.5612 63.7877 36.5712 63.9577 36.6112C63.8777 36.5812 63.7877 36.5512 63.7077 36.5112C64.0677 36.6712 63.4277 36.2312 63.7077 36.5212C63.5377 36.3512 63.4477 36.1612 63.4277 35.9212C63.4177 35.7812 63.5477 35.3312 63.4277 35.6412C63.4577 35.5712 63.8077 35.0612 63.5777 35.3212C63.6377 35.2712 63.7077 35.2212 63.7677 35.1812C63.6077 35.2712 63.5977 35.2812 63.7577 35.2112C64.0077 35.0312 63.6678 35.3112 63.5878 35.2412C63.6678 35.2312 63.7578 35.2112 63.8378 35.2012C63.6478 35.1912 63.6477 35.2012 63.8177 35.2112C63.9877 35.2412 63.9877 35.2312 63.8077 35.1812C63.8777 35.2112 63.9578 35.2412 64.0278 35.2612C64.1978 35.4112 64.2377 35.4412 64.1277 35.3312C64.0277 35.2212 64.0477 35.2612 64.1977 35.4412C64.0477 35.0912 64.2878 35.6412 64.1678 35.4312C64.0578 35.2212 64.1277 35.1412 64.1377 35.4212C64.1377 35.2112 64.2378 34.9512 64.1078 35.3212C64.1478 35.2112 64.3277 34.7812 64.1177 35.2012C64.5877 34.2512 64.4077 32.9512 63.3877 32.4112C62.4877 31.9312 61.1177 32.1212 60.6177 33.1512Z" fill="black"/>
<path d="M73.7178 15.1712C72.8378 16.7712 72.4877 18.9412 73.8677 20.3812C75.3677 21.9412 77.9077 21.4412 78.9977 19.6612C80.0877 17.8812 79.1278 15.6312 77.1378 15.0912C75.4578 14.6412 73.4277 15.6412 73.0477 17.4012C72.8277 18.4412 73.3578 19.6512 74.4678 19.9012C75.4878 20.1312 76.7378 19.5912 76.9678 18.4812C77.0078 18.3212 76.9977 18.3312 76.9277 18.5112C76.8777 18.6612 76.7977 18.7812 76.6777 18.8912C76.9477 18.6212 76.2777 19.1312 76.6177 18.9412C76.5277 18.9812 76.4378 19.0212 76.3378 19.0612C76.5478 19.0112 76.4778 19.0112 76.1378 19.0612C76.2278 19.0512 76.5678 19.0812 76.2078 19.0312C76.1078 19.0212 75.9978 18.9912 75.9178 18.9412C75.9978 18.9912 75.6078 18.6712 75.5378 18.5512C75.3978 18.3112 75.3477 17.9912 75.4277 17.7212C75.5577 17.4612 75.5777 17.4012 75.5077 17.5312C75.4277 17.6612 75.4677 17.6112 75.6277 17.3812C75.3877 17.6712 75.9678 17.1912 75.6078 17.3812C75.6878 17.3412 75.7678 17.3112 75.8478 17.2712C76.1578 17.2512 76.2277 17.2412 76.0677 17.2412C75.9077 17.2412 75.9777 17.2512 76.2977 17.2612C76.4777 17.3612 76.6578 17.4712 76.8378 17.5712C76.6778 17.4112 76.6978 17.4312 76.8878 17.6512C76.9178 17.7312 76.9477 17.8012 76.9877 17.8812C76.8577 17.5512 76.9377 18.2112 76.9877 17.8412C77.0577 17.3412 76.8377 18.2612 76.9977 17.7612C77.0477 17.6012 77.0878 17.4512 77.1478 17.2912C77.0278 17.6112 77.1278 17.3712 77.2178 17.2012C77.7278 16.2712 77.4777 14.9412 76.4877 14.4112C75.5477 13.9412 74.2678 14.1812 73.7178 15.1712Z" fill="black"/>
<path d="M93.6678 1.27118C92.6078 0.741179 91.3778 0.301182 90.1978 0.731182C89.3878 1.02118 88.7178 1.56118 88.4878 2.43118C88.3278 3.03118 88.3178 3.66118 88.4778 4.27118C89.0578 6.47118 91.7578 7.78118 93.7278 6.43118C95.5278 5.19118 96.0178 2.38118 94.2678 0.861179C92.6378 -0.558821 89.6878 -0.218819 88.7178 1.85118C88.2678 2.81118 88.4178 4.09118 89.4478 4.64118C90.3478 5.12118 91.7478 4.94118 92.2378 3.91118C92.4578 3.43118 92.0178 4.07118 92.2478 3.86118C92.1678 3.92118 92.0978 3.98118 92.0178 4.04118C92.2078 3.94118 92.1478 3.95118 91.8378 4.09118C91.9078 4.06118 91.9878 4.04118 92.0578 4.02118C91.9578 4.03118 91.8478 4.04118 91.7478 4.06118C91.8278 4.05118 91.8978 4.05118 91.9778 4.05118C91.6278 3.99118 91.5578 3.98118 91.7778 4.02118C92.1278 4.13118 91.3878 3.77118 91.7078 3.99118C91.4578 3.78118 91.4078 3.74118 91.5578 3.89118C91.4978 3.82118 91.4378 3.74118 91.3778 3.67118C91.4778 3.86118 91.4578 3.81118 91.3178 3.51118C91.3678 3.73118 91.3578 3.66118 91.2978 3.32118C91.3278 3.69118 91.4378 2.88118 91.3078 3.25118C91.1678 3.66118 91.5178 2.81118 91.3278 3.21118C91.2078 3.39118 91.2478 3.35118 91.4278 3.08118C91.3078 3.19118 91.3178 3.19118 91.4578 3.08118C91.6078 2.97118 91.6078 2.97118 91.4678 3.05118C91.7778 2.93118 91.8278 2.91118 91.6278 2.97118C91.7778 2.92118 91.9178 2.91118 92.0678 2.95118C92.2478 2.99118 92.2578 2.98118 92.0878 2.95118C92.3778 3.09118 92.4178 3.10118 92.2278 3.00118C92.4478 3.18118 92.4978 3.23118 92.3878 3.12118C92.0278 2.80118 92.5078 3.40118 92.3478 3.07118C92.4478 3.34118 92.4778 3.40118 92.4278 3.26118C92.4078 3.20118 92.3878 3.14118 92.3778 3.07118C92.5778 3.20118 92.2478 3.97118 92.4578 3.40118C92.1478 3.81118 91.8378 4.21118 91.5178 4.62118C91.6778 4.52118 91.6778 4.50118 91.5278 4.57118C91.4078 4.63118 91.2878 4.65118 91.1578 4.64118C91.5278 4.62118 90.9178 4.54118 91.1378 4.62118C91.2578 4.67118 91.3978 4.70118 91.5178 4.74118C91.1978 4.64118 91.4278 4.70118 91.6078 4.80118C92.5578 5.28118 93.8578 5.08118 94.3978 4.07118C94.8878 3.13118 94.6878 1.78118 93.6678 1.27118Z" fill="black"/>
<path d="M70.3978 5.63118C70.2878 6.37118 70.2478 7.09118 70.4978 7.82118C70.8478 8.80118 71.4678 9.72118 72.5778 9.87118C73.5578 10.0012 74.4478 9.51118 74.9478 8.67118C75.5878 7.58118 75.1778 6.21118 74.1278 5.56118C73.2278 4.99118 71.8478 5.34118 71.3378 6.29118C70.8078 7.29118 71.1078 8.47118 72.0678 9.08118C72.0878 9.09118 72.0978 9.10118 72.1178 9.11118C71.9778 9.00118 71.8478 8.90118 71.7078 8.79118C71.7178 8.80118 71.7278 8.82118 71.7478 8.83118C71.6378 8.69118 71.5378 8.56118 71.4278 8.42118C71.4378 8.44118 71.4378 8.45118 71.4478 8.47118C71.3778 8.31118 71.3078 8.15118 71.2378 7.98118C71.2378 8.00118 71.2478 8.01118 71.2478 8.03118C71.2278 7.85118 71.1978 7.67118 71.1778 7.49118C71.1778 7.51118 71.1778 7.53118 71.1778 7.54118C71.1978 7.36118 71.2278 7.18118 71.2478 7.00118C71.2478 7.04118 71.2378 7.07118 71.2178 7.11118C71.2878 6.95118 71.3578 6.79118 71.4278 6.62118C71.4078 6.66118 71.3878 6.69118 71.3678 6.72118C71.4778 6.58118 71.5778 6.45118 71.6878 6.31118C71.6678 6.34118 71.6378 6.37118 71.6078 6.39118C71.7478 6.28118 71.8778 6.18118 72.0178 6.07118C71.9978 6.08118 71.9878 6.09118 71.9678 6.10118C72.1278 6.03118 72.2878 5.96118 72.4578 5.89118C72.4278 5.91118 72.3978 5.92118 72.3578 5.92118C72.5378 5.90118 72.7178 5.87118 72.8978 5.85118C72.8778 5.85118 72.8678 5.85118 72.8478 5.84118C73.0278 5.86118 73.2078 5.89118 73.3878 5.91118C73.3678 5.90118 73.3578 5.90118 73.3378 5.89118C73.4978 5.96118 73.6578 6.03118 73.8278 6.10118C73.8078 6.09118 73.7978 6.08118 73.7778 6.06118C74.0178 6.30118 74.2678 6.55118 74.5078 6.79118C74.4078 6.65118 74.3278 6.51118 74.2578 6.35118C74.3278 6.51118 74.3978 6.67118 74.4678 6.84118C74.3878 6.65118 74.3378 6.46118 74.3078 6.25118C74.3278 6.43118 74.3578 6.61118 74.3778 6.79118C74.3578 6.62118 74.3578 6.45118 74.3778 6.28118C74.3578 6.46118 74.3278 6.64118 74.3078 6.82118C74.3178 6.79118 74.3178 6.75118 74.3278 6.72118C74.4078 6.16118 74.4178 5.66118 74.1178 5.15118C73.8678 4.73118 73.3878 4.32118 72.8978 4.21118C72.3778 4.09118 71.7878 4.12118 71.3278 4.42118C70.9178 4.68118 70.4678 5.12118 70.3978 5.63118Z" fill="black"/>
<path d="M35.0677 68.2912C33.3377 66.6612 30.1377 66.9612 29.0577 69.2312C27.8977 71.6712 29.7278 74.6212 32.4478 74.6512C35.1778 74.6812 36.8878 71.4612 35.6978 69.1412C34.5278 66.8712 31.0977 66.6912 29.6777 68.7612C27.8677 71.4012 31.2278 74.9012 33.9478 73.3212C34.8678 72.7812 35.2777 71.4612 34.6777 70.5312C34.0777 69.6012 32.8778 69.2312 31.8878 69.8012C32.0878 69.6812 32.3578 69.6512 32.5878 69.6912C32.6578 69.7012 33.0577 69.8612 32.9377 69.7812C32.7277 69.6612 33.3077 70.1012 32.9977 69.8012C33.1277 69.9312 33.1977 70.0712 33.2477 70.2412C33.1677 69.9712 33.2477 70.3012 33.2477 70.4012C33.2477 70.6312 33.1678 70.8512 33.0278 71.0312C32.9878 71.0812 32.6677 71.3412 32.7977 71.2612C33.0277 71.1212 32.3678 71.4912 32.3378 71.3712C32.3378 71.3712 32.6078 71.3612 32.6078 71.3712C32.5178 71.3612 32.4278 71.3512 32.3378 71.3412C32.5078 71.3912 32.5178 71.3912 32.3578 71.3312C31.9678 71.3212 32.6278 71.3012 32.2678 71.2712C32.1378 71.1612 32.1378 71.1712 32.2678 71.2912C32.2178 71.2212 32.1677 71.1612 32.1177 71.0912C32.0477 70.9812 31.9878 70.7512 32.0778 71.0112C32.0678 70.9312 32.0577 70.8512 32.0477 70.7712C32.0377 70.9612 32.0477 70.9712 32.0577 70.8012C32.1577 70.4012 31.9478 71.0812 32.0778 70.7212C32.1678 70.4612 31.8377 70.9612 32.1877 70.5912C32.1677 70.6112 31.9678 70.8012 31.9778 70.8112C31.9478 70.7312 32.3178 70.6112 32.3578 70.5912C31.9278 70.7512 32.6377 70.5912 32.3777 70.6012C32.1777 70.6112 32.6078 70.6612 32.6478 70.6612C32.7978 70.7312 32.7877 70.7212 32.6177 70.6312C32.6777 70.6812 32.7278 70.7212 32.7878 70.7712C32.7278 70.5912 32.7077 70.6712 32.8077 70.8412C32.7477 70.7512 32.6578 70.4512 32.6978 70.6812C32.7578 71.0112 32.7678 70.3912 32.7278 70.7612C32.7478 70.9312 32.7577 70.9212 32.7477 70.7312C32.7377 70.8112 32.7378 70.8912 32.7278 70.9812C32.6878 71.1212 32.5678 71.2612 32.7078 71.0712C32.6578 71.1312 32.2777 71.4812 32.4377 71.3612C32.5377 71.2812 32.7378 71.2712 32.5178 71.3012C32.3878 71.3512 32.3778 71.3612 32.4778 71.3312C32.6278 71.2912 32.5677 71.3012 32.2977 71.3412C32.3077 71.3312 32.5778 71.3312 32.5878 71.3412C32.5578 71.2912 32.1478 71.3012 32.4678 71.3512C32.2278 71.2412 32.1777 71.2212 32.3077 71.3012C32.4377 71.3812 32.3877 71.3512 32.1777 71.2112C32.9577 71.9412 34.2977 72.0412 35.0577 71.2112C35.7877 70.3812 35.8877 69.0712 35.0677 68.2912Z" fill="black"/>
<path d="M69.5878 43.3612C67.8678 44.5612 66.8478 46.3212 66.7578 48.4312C66.7178 49.2512 67.4077 50.2512 68.2477 50.3912C69.7477 50.6512 71.3778 50.7712 72.7278 49.9112C74.0278 49.0912 74.7877 47.5812 74.5577 46.0512C74.3177 44.4112 72.8578 43.2412 71.2078 43.2512C69.7378 43.2612 68.4278 44.1212 67.3578 45.0312C66.5178 45.7512 66.6178 47.1712 67.3578 47.9112C68.1878 48.7412 69.3977 48.6312 70.2377 47.9112C70.3277 47.8412 70.4578 47.7312 70.2878 47.8612C70.4278 47.7612 70.5678 47.6712 70.7078 47.5812C70.8278 47.5112 70.9378 47.4412 71.0678 47.3812C71.3578 47.2412 70.8278 47.4412 71.1278 47.3612C71.4478 47.2712 71.3778 47.4012 71.2078 47.3212C71.2678 47.3212 71.3178 47.3212 71.3778 47.3212C71.3078 47.3212 71.2378 47.3112 71.1678 47.3112C70.9678 47.2312 70.7278 47.0912 70.6278 46.8912C70.5878 46.8112 70.5577 46.3312 70.5477 46.5612C70.5377 46.8612 70.5377 46.2112 70.5477 46.5112C70.5177 46.6212 70.5177 46.6212 70.5577 46.5112C70.6077 46.4012 70.5977 46.4012 70.5477 46.5012C70.4877 46.6012 70.4877 46.6012 70.5477 46.5012C70.6377 46.3912 70.6078 46.4012 70.4678 46.5512C70.5178 46.4712 70.5978 46.4312 70.6878 46.4112C70.5478 46.4512 70.4078 46.5012 70.2678 46.5212C70.4878 46.4812 70.2178 46.5112 70.1478 46.5112C69.7378 46.4912 69.5378 46.4812 69.3378 46.4512C69.8378 47.1012 70.3378 47.7612 70.8278 48.4112C70.8378 48.2012 70.9077 47.8412 71.0577 47.5612C71.0977 47.4812 71.4678 47.0012 71.2778 47.2112C71.3378 47.1412 71.8678 46.7012 71.6478 46.8512C72.5478 46.2212 72.9678 45.0712 72.3778 44.0612C71.8578 43.2012 70.4978 42.7312 69.5878 43.3612Z" fill="black"/>
<path d="M14.4977 47.1312C13.3577 47.5912 12.5277 48.3512 12.1377 49.5412C11.8177 50.5312 11.9377 51.6912 12.4977 52.5712C13.0177 53.3812 13.8777 53.6912 14.7977 53.5112C16.2577 53.2112 17.3677 52.0512 17.8177 50.6712C18.2177 49.4512 17.1378 48.0312 15.8578 48.0912C14.6678 48.1512 13.4977 48.6612 13.1377 49.9112C12.7977 51.1312 13.4677 52.5312 14.7477 52.8512C16.1477 53.2012 17.4577 52.1312 17.4977 50.7112C17.5377 49.2212 16.1477 48.2412 14.7477 48.5512C13.7077 48.7812 12.9977 50.0412 13.3277 51.0512C13.6777 52.1412 14.7177 52.7212 15.8277 52.4712C15.8477 52.4712 15.8677 52.4612 15.8877 52.4612C15.3677 52.3912 14.8377 52.3212 14.3177 52.2512C14.3377 52.2612 14.3477 52.2612 14.3677 52.2712C14.1277 52.0312 13.8777 51.7812 13.6377 51.5412C13.6377 50.9612 13.6378 50.3812 13.6478 49.8012C13.8878 49.5612 14.1377 49.3112 14.3777 49.0712C14.3577 49.0812 14.3477 49.1012 14.3277 49.1112C14.6677 49.0212 15.0078 48.9212 15.3578 48.8312C15.4878 48.8512 15.6077 48.8612 15.7377 48.8812C16.0377 49.0512 16.3377 49.2312 16.6377 49.4012C16.7377 50.0412 16.8377 50.6912 16.9377 51.3312C16.6977 51.5712 16.4478 51.8212 16.2078 52.0612C16.4078 51.9312 16.3478 51.9312 16.0178 52.0612C15.6578 52.1412 15.6078 52.1612 15.8578 52.1412C15.2078 51.2812 14.5478 50.4212 13.8978 49.5612C13.7578 49.9812 14.1277 49.2312 13.8677 49.5812C14.0377 49.3812 14.0678 49.3312 13.9678 49.4412C13.9178 49.4912 13.8677 49.5412 13.8177 49.5912C13.8777 49.5412 13.9477 49.4912 14.0077 49.4412C13.9277 49.4912 13.8478 49.5412 13.7678 49.5812C13.8478 49.5512 13.9177 49.5112 13.9977 49.4812C13.9077 49.5112 13.8178 49.5312 13.7278 49.5512C14.4978 49.8612 15.2578 50.1712 16.0278 50.4912C15.8678 50.2412 16.0877 50.6012 16.0677 50.6712C16.0677 50.6812 15.9578 50.1712 16.0278 50.6012C16.0778 50.9412 16.0377 50.6612 16.0477 50.5812C16.0877 50.3312 15.9678 51.1312 16.0378 50.7212C16.0878 50.4312 16.0278 50.8612 15.9578 50.8812C15.9678 50.8812 16.0777 50.6912 16.0777 50.6812C16.0177 50.7612 15.9678 50.8312 15.9078 50.9112C16.0278 50.8012 16.0177 50.8012 15.8777 50.9112C15.7477 51.0012 15.7177 51.0212 15.8077 50.9712C15.9377 50.8912 15.8678 50.9212 15.5878 51.0512C16.5678 50.6512 17.3777 49.6712 17.0077 48.5512C16.6977 47.6012 15.5577 46.7112 14.4977 47.1312Z" fill="black"/>
<path d="M17.3578 64.2512C14.9878 64.4212 13.1077 66.6512 13.8177 69.0512C14.4877 71.3012 17.3577 72.3712 19.3377 71.1312C21.3477 69.8712 21.6277 66.6312 19.4977 65.3412C17.5277 64.1512 14.5577 65.6212 14.6877 68.0312C14.7377 69.0912 15.5878 70.1212 16.7278 70.0712C17.7878 70.0212 18.8177 69.1712 18.7677 68.0312C18.7677 67.7812 18.7378 67.8512 18.6678 68.2312C18.6578 68.4512 18.5677 68.6312 18.4077 68.7712C18.1677 68.9312 18.1177 68.9712 18.2477 68.8912C18.3777 68.8112 18.3177 68.8412 18.0677 68.9612C18.3677 68.8412 17.9277 68.9712 17.7777 68.9512C17.5577 68.9212 17.3477 68.8212 17.1977 68.6512C17.0077 68.4512 16.9677 68.2512 16.9377 68.0012C16.9877 68.5112 16.8977 67.5412 16.9277 68.0512C16.9577 67.9812 16.9877 67.9112 17.0077 67.8412C16.9077 68.0012 16.8977 68.0112 16.9877 67.8812C17.0377 67.7812 17.1278 67.7112 17.2278 67.6612C17.4578 67.5812 17.5078 67.5712 17.3578 67.6112C17.0978 67.6612 17.7578 67.5612 17.3578 67.6012C17.6078 67.6412 17.6677 67.6412 17.5177 67.6012C17.3777 67.5612 17.4177 67.5812 17.6377 67.6612C17.3077 67.4312 17.7977 67.9512 17.5477 67.6012C17.5977 67.6712 17.7678 68.0912 17.7278 67.8912C17.6778 67.6812 17.7077 68.1612 17.6977 68.2412C17.7577 67.7012 17.6277 68.6412 17.7477 68.1212C17.6077 68.2912 17.5977 68.3212 17.6977 68.2112C17.8077 68.1112 17.7778 68.1312 17.6078 68.2712C17.8878 68.0812 17.5278 68.3012 17.3578 68.3112C18.4178 68.2312 19.4477 67.4312 19.3977 66.2712C19.3477 65.2412 18.4978 64.1612 17.3578 64.2512Z" fill="black"/>
<path d="M62.5577 62.1212C61.8877 63.7512 61.9477 65.8812 63.2377 67.2012C64.4177 68.4212 66.4078 68.7112 67.8578 67.8112C69.5478 66.7612 69.7077 64.4712 68.3077 63.1212C66.9977 61.8612 64.5978 61.8412 63.6978 63.6012C63.2078 64.5512 63.4177 65.8512 64.4277 66.3912C65.3577 66.8812 66.6878 66.6712 67.2178 65.6612C67.3378 65.4612 67.2678 65.5112 67.0178 65.8212C66.8778 66.0212 66.6978 66.1512 66.4578 66.2212C66.3478 66.2412 66.2277 66.2612 66.1177 66.2812C65.7777 66.2212 65.6778 66.2112 65.8378 66.2612C66.0678 66.3212 65.4178 66.0412 65.7078 66.2312C65.4678 66.0312 65.4078 65.9912 65.5178 66.1012C65.6278 66.2112 65.5777 66.1512 65.3777 65.9112C65.1277 65.4912 65.1877 64.8512 65.5477 64.5112C65.7877 64.3512 65.8378 64.3012 65.7078 64.3812C65.5778 64.4512 65.6378 64.4312 65.8978 64.3012C65.5578 64.4312 66.2178 64.2912 65.9778 64.2912C65.7378 64.2912 66.4677 64.4312 66.0477 64.3012C65.6877 64.1912 66.3078 64.4412 66.0878 64.3212C65.8678 64.1912 66.4377 64.5512 66.1277 64.3412C66.2677 64.5212 66.2978 64.5512 66.2178 64.4212C66.1478 64.2912 66.1577 64.3112 66.2477 64.4912C66.1977 64.1012 66.1978 64.6612 66.2178 64.4112C66.2278 64.2612 66.2178 64.1012 66.2278 63.9512C66.1778 64.3812 66.2877 63.8112 66.2977 63.7512C66.3477 63.5712 66.4177 63.4012 66.4877 63.2212C66.8977 62.2312 66.0477 60.9412 65.0677 60.7212C63.8777 60.4312 62.9977 61.0612 62.5577 62.1212Z" fill="black"/>
<path d="M44.7577 53.6012C41.9377 54.2512 40.8178 58.1212 42.8478 60.1812C44.8778 62.2512 48.9878 61.1012 49.4678 58.1612C49.6178 57.2612 49.3678 56.3512 48.5278 55.8612C46.7678 54.8412 44.5377 54.8312 42.8177 55.9312C41.8877 56.5212 41.5178 57.7412 42.0878 58.7212C42.6278 59.6412 43.9377 60.0412 44.8777 59.4512C45.4877 59.0612 45.8978 59.0312 46.4778 59.3812C46.1678 58.6112 45.8578 57.8512 45.5378 57.0812C45.5378 57.1012 45.4778 57.4012 45.4678 57.4012C45.3878 57.3812 45.7677 56.9112 45.6177 57.1112C45.4477 57.3412 45.8678 56.9112 45.6578 57.1012C45.6178 57.1412 45.3078 57.2812 45.5378 57.1812C45.7978 57.0712 45.3677 57.2112 45.3077 57.2212C45.4677 57.1912 45.5978 57.1312 45.3578 57.1812C45.5078 57.1512 45.6677 57.2612 45.4277 57.1612C45.4977 57.1912 45.8778 57.4412 45.7178 57.3012C45.5778 57.1712 45.8078 57.4512 45.8478 57.5012C45.9278 57.6412 45.9078 57.4012 45.8578 57.5712C45.7878 57.8012 45.8777 57.4912 45.8677 57.3712C45.8677 57.5112 45.8577 57.7112 45.8777 57.4512C45.8977 57.2112 45.9678 57.3812 45.8578 57.5012C46.0578 57.2912 45.8777 57.5012 45.8077 57.5312C46.2477 57.3512 45.5377 57.6112 45.8077 57.5112C46.0777 57.4112 45.3377 57.6412 45.8277 57.5312C46.8977 57.2812 47.5277 56.0512 47.2477 55.0312C46.9577 53.9212 45.8377 53.3512 44.7577 53.6012Z" fill="black"/>
<path d="M0.157747 63.1012C-0.102253 66.0812 1.99772 68.8612 4.81772 69.6812C6.04772 70.0412 7.44774 69.0312 7.39774 67.7212C7.28774 65.0812 5.60773 62.8712 3.07773 62.0912C2.40773 61.8812 1.57775 62.1012 1.09775 62.6112C0.14775 63.6312 -0.282275 65.0612 0.197725 66.4112C0.567725 67.4412 1.57773 68.1512 2.69773 67.8312C3.92773 67.4812 4.91772 66.7212 5.56772 65.6112C6.87772 63.3412 3.3577 61.2812 2.0477 63.5512C1.8977 63.8112 1.90771 63.8212 1.61771 63.9012C2.44771 64.3712 3.28771 64.8512 4.11771 65.3212C3.93771 64.8312 4.15774 65.2912 3.96775 65.4812C3.30774 65.6512 2.6477 65.8312 1.9877 66.0012C2.7677 66.2412 3.28772 66.9512 3.31772 67.7112C4.17772 67.0612 5.03774 66.4012 5.89774 65.7512C4.69774 65.4012 4.12775 64.2712 4.22775 63.1012C4.32775 62.0012 3.22772 61.0612 2.18772 61.0612C1.00772 61.0612 0.247747 62.0012 0.157747 63.1012Z" fill="black"/>
<path d="M46.1877 74.1612C45.2877 76.5312 47.5078 79.4512 50.0378 79.1812C50.9478 79.0812 51.7377 78.6112 51.9977 77.6912C52.8077 74.8212 50.6277 72.0912 47.7677 71.8512C46.5777 71.7512 45.8578 72.8712 45.7278 73.8912C45.4578 76.1712 47.1877 78.4312 49.3777 78.9512C50.6777 79.2612 51.9377 78.3412 51.9577 76.9912C51.9977 74.3712 49.9077 72.3512 47.3677 72.1612C46.3077 72.0812 45.2877 73.1612 45.3277 74.2012C45.3777 75.3712 46.2277 76.1512 47.3677 76.2412C47.1677 76.2212 47.1677 76.2012 47.3677 76.2512C47.5477 76.3012 47.5477 76.3412 47.3877 76.2412C47.4977 76.3012 47.5977 76.3612 47.6977 76.4312C47.4677 76.2612 47.6577 76.4312 47.7677 76.5312C47.9677 76.7412 47.6378 76.3012 47.7778 76.5512C47.7978 76.5912 47.9477 76.9212 47.8777 76.7112C47.7977 76.5012 47.8978 76.8612 47.9178 76.9012C47.9978 77.1612 47.9077 76.4812 47.8977 76.9912C48.7577 76.3412 49.6178 75.6812 50.4778 75.0312C50.3578 75.0012 50.2477 74.9712 50.1277 74.9312C50.4877 75.0612 50.1377 74.9012 50.0577 74.8512C49.8177 74.6912 50.2377 75.0412 50.0477 74.8312C49.9777 74.7512 49.7878 74.4512 49.9678 74.7512C49.9078 74.6512 49.8478 74.5412 49.7878 74.4412C49.8778 74.6212 49.8477 74.6012 49.7977 74.4212C49.6977 74.0612 49.7478 74.5512 49.7778 74.3412C49.7978 74.2012 49.7877 74.0412 49.8077 73.8912C49.1277 74.5712 48.4477 75.2512 47.7677 75.9312C47.3277 75.8912 47.6877 75.9212 47.7977 75.9712C47.9377 76.0212 47.9077 76.0012 47.6977 75.9312C47.7477 75.9612 47.7977 75.9912 47.8377 76.0112C47.7277 76.0312 47.6177 75.8012 47.8777 76.0612C47.9977 76.1712 48.0677 76.4012 47.9277 76.1112C47.9677 76.2112 48.0378 76.3112 48.0978 76.4012C47.8878 76.0412 48.0977 76.3412 48.0877 76.4712C48.0677 76.7112 48.0577 76.1112 48.0877 76.5112C48.1177 76.9212 48.1777 76.1912 48.0577 76.6312C48.7077 76.1312 49.3677 75.6312 50.0177 75.1412C49.5477 75.1912 49.8077 75.1312 50.1177 75.2712C49.9277 75.1512 49.9277 75.1712 50.1277 75.3212C50.0477 75.2512 49.9677 75.1712 49.8977 75.0912C50.0477 75.2912 50.0677 75.2912 49.9477 75.1012C50.0477 75.3412 50.0577 75.3512 49.9977 75.1312C50.0477 75.4712 49.9177 75.7312 50.0877 75.2812C50.4677 74.2812 49.6678 73.0012 48.6678 72.7812C47.5278 72.4812 46.5877 73.1012 46.1877 74.1612Z" fill="black"/>
<path d="M8.01775 82.4512C7.34774 82.0112 6.51776 81.7812 5.71776 81.8612C4.84776 81.9512 3.96774 82.4312 3.75774 83.3512C3.06774 86.2912 6.47772 89.1012 9.17772 87.4112C11.8077 85.7612 10.7977 81.6012 7.94774 80.8612C6.34774 80.4412 4.49776 81.3912 4.09776 83.0412C3.71776 84.6212 4.68772 86.3612 6.23772 86.8512C7.77772 87.3412 9.51771 86.5312 10.2977 85.1512C11.1377 83.6612 10.8477 81.8812 9.98772 80.4712C8.62772 78.2312 5.10776 80.2812 6.46776 82.5312C6.50776 82.6012 6.85772 83.2412 6.73772 83.2212C6.62772 83.2112 7.04775 82.9512 7.08775 82.9412C7.38775 82.8712 7.84773 83.1112 7.99773 83.4012C8.14773 83.6912 8.02775 83.8712 7.89775 84.1712C7.63775 84.7912 7.45776 84.7712 6.84776 84.7912C6.64776 84.6812 6.61773 84.6612 6.74773 84.7412C6.86773 84.8112 6.84777 84.7912 6.66777 84.6812C6.63777 84.6312 6.60773 84.5812 6.56773 84.5312C6.66773 84.7112 6.68773 84.7312 6.62773 84.5912C6.57773 84.4512 6.58775 84.4812 6.64775 84.6712C6.63775 84.6012 6.63773 84.5412 6.62773 84.4712C6.62773 84.5312 6.62773 84.5812 6.62773 84.6412C6.61773 84.5312 6.63773 84.4312 6.68773 84.3412C6.81773 84.1312 6.99774 83.9012 7.25774 83.8412C7.35773 83.8112 7.45771 83.8112 7.54771 83.8512C7.69771 83.8912 7.67776 83.8812 7.46776 83.8312C7.51776 83.8512 7.56772 83.8812 7.61772 83.9012C7.43772 83.7912 7.40774 83.7712 7.51774 83.8612C7.59774 83.9312 7.59774 83.9212 7.51774 83.8412C7.41774 83.7312 7.42773 83.7512 7.56773 83.9012C7.60773 84.0912 7.69775 84.2312 7.64775 84.4512C6.99775 84.9512 6.33773 85.4512 5.68773 85.9412C6.11773 85.9012 5.56772 85.7312 5.92772 85.9712C6.84772 86.5712 8.17776 86.1612 8.71776 85.2412C9.32776 84.2512 8.94774 83.0612 8.01775 82.4512Z" fill="black"/>
<path d="M28.6478 81.5112C27.1378 83.1812 27.0678 85.8712 28.7878 87.4412C30.4178 88.9412 33.1378 88.7112 34.5678 87.0612C36.1478 85.2312 35.6078 82.3212 33.5578 81.0712C32.6078 80.4912 31.4578 80.3512 30.3978 80.6912C29.0978 81.1012 28.2778 82.0812 27.7778 83.3012C27.3678 84.3212 28.2278 85.5412 29.1978 85.8012C30.3578 86.1212 31.2878 85.4012 31.6978 84.3812C31.6078 84.6012 31.4978 84.6512 31.7078 84.4812C31.4978 84.6412 31.4078 84.5512 31.6578 84.5512C31.4678 84.5612 31.4478 84.5712 31.5978 84.5712C31.7578 84.5712 31.7278 84.5712 31.5078 84.5612C31.3278 84.4712 31.2978 84.4612 31.4278 84.5312C31.5478 84.6112 31.5278 84.5912 31.3678 84.4812C31.5078 84.6312 31.5278 84.6512 31.4378 84.5512C31.3478 84.4412 31.3678 84.4712 31.4778 84.6412C31.4078 84.4512 31.3978 84.4312 31.4378 84.5712C31.4778 84.7212 31.4778 84.6812 31.4378 84.4712C31.4278 84.6812 31.4378 84.7112 31.4478 84.5512C31.4478 84.4612 31.4778 84.3712 31.5378 84.3012C31.4278 84.4712 31.4278 84.5012 31.5078 84.3812C31.5978 84.2712 31.5778 84.2812 31.4478 84.4312C31.4978 84.3912 31.5378 84.3512 31.5878 84.3212C31.3878 84.4312 31.3878 84.4412 31.6178 84.3412C31.5678 84.3612 31.5078 84.3712 31.4578 84.3912C31.2278 84.4412 31.2378 84.4412 31.4878 84.3912C31.4278 84.3912 31.3778 84.3912 31.3178 84.3912C31.5778 84.4312 31.5878 84.4312 31.3578 84.3712C31.4178 84.3912 31.4778 84.4212 31.5278 84.4412C31.3378 84.3212 31.3278 84.3212 31.5178 84.4412C31.5478 84.4812 31.5778 84.5312 31.6178 84.5712C31.5078 84.3612 31.4978 84.3712 31.5878 84.5812C31.5678 84.5212 31.5578 84.4712 31.5378 84.4112C31.5478 84.6312 31.5578 84.6612 31.5478 84.5112C31.5378 84.4212 31.5378 84.3312 31.5478 84.2412C31.5178 84.4512 31.5178 84.4912 31.5478 84.3412C31.5878 84.2012 31.5778 84.2212 31.5078 84.4112C31.6278 84.2112 31.6278 84.2112 31.5078 84.3912C32.2478 83.5812 32.3078 82.3212 31.5078 81.5112C30.7778 80.7612 29.3878 80.6912 28.6478 81.5112Z" fill="black"/>
</svg>
