<svg width="1440" height="900" viewBox="0 0 1440 900" fill="none" xmlns="http://www.w3.org/2000/svg">
<mask id="mask0" mask-type="alpha" maskUnits="userSpaceOnUse" x="0" y="0" width="1440" height="900">
<rect width="1440" height="900" fill="#FAF8F5"/>
</mask>
<g mask="url(#mask0)">
<path d="M817.76 1060.75C736.256 1008.09 708.794 887.007 759.714 804.337C773.885 781.369 792.94 761.442 804.389 737.033C832.251 677.571 810.554 601.463 846.582 546.563C868.279 513.511 907.35 495.264 946.34 489.022C985.33 482.78 1025.2 486.701 1064.67 489.022C1128.24 492.703 1192.29 491.743 1255.06 481.179C1293.65 474.697 1333.92 464.613 1371.23 476.537C1425.43 493.824 1455.06 550.725 1477.23 603.064C1514.06 690.136 1546.49 783.21 1536 877.164C1525.43 971.118 1460.02 1065.07 1366.51 1079.16C1335.12 1083.88 1303.02 1079.56 1271.55 1083.88C1212.31 1091.96 1157.63 1129.98 1098.14 1124.45C1060.03 1120.85 1026.08 1099.65 994.938 1077.48C964.674 1055.87 927.765 1031.62 893.339 1045.63C884.372 1049.31 876.365 1055.39 866.918 1057.47C844.901 1062.27 818.72 1044.51 801.107 1058.51" fill="#E0DED9"/>
<g opacity="0.2">
<mask id="path-3-inside-1" fill="white">
<path d="M792.427 1081.64C704.435 1024.8 674.788 894.085 729.761 804.841C745.06 780.047 765.632 758.535 777.992 732.185C808.072 667.995 784.648 585.836 823.544 526.571C846.968 490.891 889.148 471.194 931.243 464.455C973.337 457.716 1016.38 461.95 1058.99 464.455C1127.62 468.429 1196.77 467.392 1264.54 455.988C1306.2 448.991 1349.68 438.105 1389.96 450.978C1448.47 469.638 1480.46 531.064 1504.4 587.564C1544.16 681.559 1579.16 782.034 1567.84 883.458C1556.43 984.883 1485.81 1086.31 1384.86 1101.51C1350.97 1106.61 1316.31 1101.94 1282.34 1106.61C1218.38 1115.34 1159.35 1156.37 1095.12 1150.41C1053.98 1146.52 1017.33 1123.63 983.709 1099.7C951.036 1076.37 911.19 1050.2 874.022 1065.31C864.341 1069.29 855.698 1075.85 845.498 1078.1C821.729 1083.28 793.464 1064.1 774.448 1079.22"/>
</mask>
<path d="M729.761 804.841L725.506 802.216L725.504 802.219L729.761 804.841ZM777.992 732.185L782.519 734.308L782.52 734.307L777.992 732.185ZM823.544 526.571L819.364 523.827L819.364 523.828L823.544 526.571ZM1058.99 464.455L1058.7 469.446L1058.71 469.447L1058.99 464.455ZM1264.54 455.988L1263.71 451.057L1263.71 451.058L1264.54 455.988ZM1389.96 450.978L1388.43 455.74L1388.44 455.741L1389.96 450.978ZM1504.4 587.564L1509 585.616L1509 585.613L1504.4 587.564ZM1567.84 883.458L1572.81 884.017L1572.81 884.013L1567.84 883.458ZM1384.86 1101.51L1385.6 1106.46L1385.6 1106.46L1384.86 1101.51ZM1282.34 1106.61L1283.02 1111.56L1283.02 1111.56L1282.34 1106.61ZM1095.12 1150.41L1094.65 1155.39L1094.66 1155.39L1095.12 1150.41ZM983.709 1099.7L980.804 1103.77L980.81 1103.77L983.709 1099.7ZM874.022 1065.31L872.138 1060.68L872.131 1060.69L872.123 1060.69L874.022 1065.31ZM845.498 1078.1L846.564 1082.99L846.574 1082.98L845.498 1078.1ZM795.14 1077.44C709.431 1022.07 680.473 894.39 734.018 807.464L725.504 802.219C669.104 893.779 699.44 1027.52 789.714 1085.84L795.14 1077.44ZM734.016 807.467C741.53 795.289 750.303 783.971 759.016 772.046C767.648 760.232 776.123 747.944 782.519 734.308L773.465 730.062C767.501 742.776 759.511 754.418 750.942 766.147C742.454 777.763 733.291 789.599 725.506 802.216L734.016 807.467ZM782.52 734.307C798.035 701.197 799.708 663.535 802.447 627.915C805.221 591.846 809.071 557.736 827.724 529.314L819.364 523.828C799.121 554.671 795.235 591.273 792.477 627.148C789.684 663.471 788.029 698.984 773.465 730.063L782.52 734.307ZM827.724 529.315C850.103 495.226 890.745 476.002 932.033 469.392L930.452 459.518C887.552 466.385 843.832 486.556 819.364 523.827L827.724 529.315ZM932.033 469.392C973.444 462.763 1015.78 466.923 1058.7 469.446L1059.29 459.464C1016.98 456.976 973.23 452.67 930.452 459.518L932.033 469.392ZM1058.71 469.447C1127.56 473.434 1197.11 472.405 1265.37 460.919L1263.71 451.058C1196.43 462.379 1127.68 463.424 1059.28 459.463L1058.71 469.447ZM1265.37 460.919C1286.47 457.374 1307.36 452.974 1328.23 451.01C1348.99 449.056 1369.18 449.588 1388.43 455.74L1391.48 446.215C1370.45 439.495 1348.76 439.033 1327.3 441.054C1305.95 443.063 1284.27 447.605 1263.71 451.057L1265.37 460.919ZM1388.44 455.741C1416.37 464.65 1438.21 483.827 1456.12 508.054C1474.06 532.312 1487.86 561.345 1499.79 589.515L1509 585.613C1497 557.282 1482.83 527.352 1464.16 502.108C1445.47 476.832 1422.06 455.966 1391.48 446.214L1388.44 455.741ZM1499.79 589.512C1539.53 683.464 1574.04 782.879 1562.87 882.904L1572.81 884.013C1584.29 781.188 1548.78 679.655 1509 585.616L1499.79 589.512ZM1562.87 882.899C1551.62 982.923 1482.09 1081.81 1384.11 1096.57L1385.6 1106.46C1489.54 1090.8 1561.24 986.843 1572.81 884.017L1562.87 882.899ZM1384.11 1096.57C1367.59 1099.05 1350.81 1099.17 1333.62 1099.22C1316.54 1099.28 1299.04 1099.27 1281.66 1101.66L1283.02 1111.56C1299.62 1109.28 1316.43 1109.28 1333.65 1109.22C1350.75 1109.17 1368.24 1109.07 1385.6 1106.46L1384.11 1096.57ZM1281.67 1101.66C1249.05 1106.11 1217.62 1118.81 1187.2 1129.29C1156.48 1139.87 1126.55 1148.31 1095.59 1145.43L1094.66 1155.39C1127.92 1158.48 1159.62 1149.37 1190.46 1138.75C1221.61 1128.01 1251.67 1115.84 1283.02 1111.56L1281.67 1101.66ZM1095.6 1145.43C1055.91 1141.68 1020.22 1119.55 986.608 1095.62L980.81 1103.77C1014.44 1127.71 1052.06 1151.36 1094.65 1155.39L1095.6 1145.43ZM986.614 1095.63C970.293 1083.98 951.73 1071.27 932.428 1063.46C913.066 1055.61 892.374 1052.45 872.138 1060.68L875.906 1069.95C892.838 1063.06 910.653 1065.43 928.674 1072.72C946.756 1080.05 964.453 1092.09 980.804 1103.77L986.614 1095.63ZM872.123 1060.69C867.004 1062.79 862.041 1065.63 857.646 1067.92C853.078 1070.3 848.85 1072.24 844.423 1073.22L846.574 1082.98C852.347 1081.71 857.54 1079.25 862.264 1076.79C867.161 1074.24 871.36 1071.81 875.921 1069.94L872.123 1060.69ZM844.433 1073.22C839.296 1074.34 833.724 1074.18 827.699 1073.38C821.556 1072.57 815.592 1071.2 809.085 1070.02C796.742 1067.77 782.775 1066.22 771.337 1075.31L777.56 1083.14C785.138 1077.11 794.811 1077.59 807.296 1079.86C813.203 1080.93 819.951 1082.44 826.387 1083.29C832.942 1084.16 839.816 1084.46 846.564 1082.99L844.433 1073.22Z" fill="#ACA99F" mask="url(#path-3-inside-1)"/>
</g>
<path d="M859.533 522.02C860.721 520.595 861.908 519.17 863.096 517.757C863.721 517.007 862.558 516.032 861.933 516.782C860.746 518.207 859.558 519.633 858.37 521.045C857.745 521.795 858.908 522.771 859.533 522.02Z" fill="white"/>
<path d="M870.747 510.968C871.61 509.931 872.473 508.906 873.335 507.868C873.96 507.118 872.798 506.143 872.172 506.893C871.31 507.93 870.447 508.956 869.585 509.993C868.959 510.743 870.122 511.719 870.747 510.968Z" fill="white"/>
<path d="M863.859 526.296C864.621 525.396 865.371 524.483 866.134 523.583C866.759 522.833 865.596 521.858 864.971 522.608C864.209 523.508 863.458 524.421 862.696 525.321C862.071 526.071 863.233 527.046 863.859 526.296Z" fill="white"/>
<path d="M887.062 512.744C887.713 511.969 888.363 511.194 889.013 510.418C889.638 509.668 888.475 508.693 887.85 509.443C887.2 510.218 886.55 510.993 885.9 511.769C885.262 512.519 886.425 513.494 887.062 512.744Z" fill="white"/>
<path d="M870.322 534.335C871.085 533.435 871.835 532.522 872.597 531.622C873.223 530.872 872.06 529.897 871.435 530.647C870.672 531.547 869.922 532.46 869.159 533.36C868.534 534.11 869.697 535.085 870.322 534.335Z" fill="white"/>
<path d="M876.961 516.157C876.098 517.195 875.236 518.22 874.373 519.257C873.748 520.008 874.911 520.983 875.536 520.233C876.398 519.195 877.261 518.17 878.124 517.132C878.749 516.382 877.586 515.407 876.961 516.157Z" fill="white"/>
<path d="M853.519 539.073C854.269 539.698 855.245 538.536 854.494 537.911C853.744 537.273 852.769 538.436 853.519 539.073Z" fill="white"/>
<path d="M865.721 542.999C864.421 544.549 863.134 546.099 861.833 547.65C861.208 548.4 862.371 549.375 862.996 548.625C864.296 547.075 865.584 545.524 866.884 543.974C867.509 543.224 866.347 542.249 865.721 542.999Z" fill="white"/>
<path d="M848.494 547.05C847.631 548.087 846.768 549.112 845.906 550.15C845.28 550.9 846.443 551.875 847.068 551.125C847.931 550.088 848.794 549.062 849.656 548.025C850.281 547.275 849.119 546.3 848.494 547.05Z" fill="white"/>
<path d="M861.008 534.447C860.683 534.835 860.358 535.223 860.033 535.61C859.408 536.36 860.571 537.336 861.196 536.585C861.521 536.198 861.846 535.81 862.171 535.423C862.796 534.673 861.633 533.697 861.008 534.447Z" fill="white"/>
<path d="M841.192 537.66C840.655 538.311 840.117 538.948 839.567 539.598C838.942 540.348 840.105 541.324 840.73 540.574C841.267 539.923 841.805 539.286 842.355 538.636C842.98 537.886 841.817 536.91 841.192 537.66Z" fill="white"/>
<path d="M853.332 553.088C852.469 554.126 851.606 555.151 850.744 556.189C850.119 556.939 851.281 557.914 851.906 557.164C852.769 556.126 853.632 555.101 854.494 554.063C855.132 553.301 853.969 552.338 853.332 553.088Z" fill="white"/>
<path d="M852.657 529.459C852.219 529.972 851.794 530.497 851.356 531.009C850.731 531.76 851.894 532.735 852.519 531.985C852.957 531.472 853.382 530.947 853.819 530.434C854.444 529.672 853.282 528.709 852.657 529.459Z" fill="white"/>
<path d="M855.807 544.612C855.27 545.262 854.732 545.899 854.182 546.55C853.557 547.3 854.719 548.275 855.345 547.525C855.882 546.875 856.42 546.237 856.97 545.587C857.595 544.824 856.432 543.862 855.807 544.612Z" fill="white"/>
<path d="M888.075 500.079C888.825 500.704 889.8 499.542 889.05 498.916C888.3 498.291 887.325 499.454 888.075 500.079Z" fill="white"/>
<path d="M862.408 502.017C861.108 503.567 859.82 505.117 858.52 506.668C857.895 507.418 859.058 508.393 859.683 507.643C860.983 506.093 862.271 504.542 863.571 502.992C864.196 502.242 863.033 501.267 862.408 502.017Z" fill="white"/>
<path d="M886.262 523.933C885.4 524.971 884.537 525.996 883.674 527.034C883.049 527.784 884.212 528.759 884.837 528.009C885.7 526.971 886.562 525.946 887.425 524.908C888.05 524.158 886.887 523.183 886.262 523.933Z" fill="white"/>
<path d="M880.174 504.017C880.924 504.642 881.899 503.48 881.149 502.855C880.399 502.23 879.424 503.392 880.174 504.017Z" fill="white"/>
<path d="M879.649 490.065C878.574 491.353 877.486 492.653 876.411 493.941C875.786 494.691 876.948 495.666 877.573 494.916C878.649 493.628 879.736 492.328 880.811 491.04C881.436 490.29 880.274 489.327 879.649 490.065Z" fill="white"/>
<path d="M899.64 500.842C898.452 502.267 897.264 503.692 896.076 505.105C895.451 505.855 896.614 506.83 897.239 506.08C898.427 504.655 899.615 503.23 900.802 501.817C901.427 501.067 900.265 500.092 899.64 500.842Z" fill="white"/>
<path d="M880.399 502.567C878.774 504.505 877.161 506.443 875.536 508.381C874.91 509.131 876.073 510.106 876.698 509.356C878.324 507.418 879.936 505.48 881.562 503.542C882.199 502.792 881.036 501.817 880.399 502.567Z" fill="white"/>
<path d="M890.25 496.304C888.625 498.241 887.012 500.179 885.387 502.117C884.762 502.867 885.925 503.842 886.55 503.092C888.175 501.154 889.788 499.217 891.413 497.279C892.038 496.529 890.876 495.553 890.25 496.304Z" fill="white"/>
<path d="M875.623 537.448C874.76 538.486 873.898 539.511 873.035 540.548C872.41 541.299 873.573 542.274 874.198 541.524C875.06 540.486 875.923 539.461 876.786 538.423C877.423 537.673 876.261 536.698 875.623 537.448Z" fill="white"/>
<path d="M848.268 520.52C847.618 521.295 846.968 522.07 846.318 522.845C845.693 523.596 846.856 524.571 847.481 523.821C848.131 523.046 848.781 522.27 849.431 521.495C850.056 520.733 848.893 519.77 848.268 520.52Z" fill="white"/>
<path d="M841.805 560.577C841.267 561.227 840.73 561.865 840.18 562.515C839.554 563.265 840.717 564.24 841.342 563.49C841.88 562.84 842.417 562.202 842.967 561.552C843.593 560.802 842.43 559.827 841.805 560.577Z" fill="white"/>
<path d="M855.92 513.732C855.595 514.119 855.27 514.507 854.945 514.894C854.319 515.644 855.482 516.62 856.107 515.869C856.432 515.482 856.757 515.094 857.082 514.707C857.708 513.957 856.545 512.981 855.92 513.732Z" fill="white"/>
<path d="M869.634 494.553C870.385 495.178 871.36 494.016 870.61 493.391C869.859 492.765 868.884 493.928 869.634 494.553Z" fill="white"/>
<path d="M916.467 496.466C916.142 496.854 915.817 497.241 915.492 497.629C914.867 498.379 916.03 499.354 916.655 498.604C916.98 498.216 917.305 497.829 917.63 497.441C918.255 496.691 917.093 495.716 916.467 496.466Z" fill="white"/>
<path d="M893.464 512.169C892.388 513.457 891.301 514.757 890.226 516.044C889.6 516.795 890.763 517.77 891.388 517.02C892.463 515.732 893.551 514.432 894.626 513.144C895.251 512.394 894.089 511.419 893.464 512.169Z" fill="white"/>
<path d="M878.561 522.108C877.799 523.008 877.048 523.921 876.286 524.821C875.661 525.571 876.823 526.546 877.448 525.796C878.211 524.896 878.961 523.983 879.724 523.083C880.349 522.333 879.186 521.358 878.561 522.108Z" fill="white"/>
<path d="M858.22 559.464C858.97 560.089 859.945 558.927 859.195 558.302C858.445 557.676 857.47 558.839 858.22 559.464Z" fill="white"/>
<path d="M874.773 547.937C873.473 549.487 872.185 551.038 870.885 552.588C870.26 553.338 871.422 554.313 872.047 553.563C873.348 552.013 874.635 550.463 875.936 548.912C876.561 548.162 875.398 547.187 874.773 547.937Z" fill="white"/>
<path d="M898.364 530.747C899.552 529.322 900.74 527.896 901.928 526.484C902.553 525.734 901.39 524.758 900.765 525.509C899.577 526.934 898.389 528.359 897.202 529.772C896.564 530.522 897.727 531.497 898.364 530.747Z" fill="white"/>
<path d="M909.579 519.695C910.442 518.657 911.304 517.632 912.167 516.594C912.792 515.844 911.629 514.869 911.004 515.619C910.141 516.657 909.279 517.682 908.416 518.72C907.791 519.47 908.954 520.445 909.579 519.695Z" fill="white"/>
<path d="M902.69 535.035C903.453 534.135 904.203 533.222 904.966 532.322C905.591 531.572 904.428 530.597 903.803 531.347C903.04 532.247 902.29 533.16 901.528 534.06C900.902 534.81 902.065 535.785 902.69 535.035Z" fill="white"/>
<path d="M925.882 521.47C926.532 520.695 927.182 519.92 927.832 519.145C928.457 518.395 927.294 517.42 926.669 518.17C926.019 518.945 925.369 519.72 924.719 520.495C924.094 521.245 925.257 522.22 925.882 521.47Z" fill="white"/>
<path d="M909.154 543.062C909.916 542.161 910.666 541.249 911.429 540.349C912.054 539.598 910.891 538.623 910.266 539.373C909.504 540.274 908.754 541.186 907.991 542.086C907.366 542.836 908.529 543.812 909.154 543.062Z" fill="white"/>
<path d="M915.78 524.883C914.917 525.921 914.054 526.946 913.192 527.984C912.567 528.734 913.729 529.709 914.354 528.959C915.217 527.921 916.08 526.896 916.942 525.859C917.568 525.108 916.405 524.133 915.78 524.883Z" fill="white"/>
<path d="M892.351 547.8C893.101 548.425 894.076 547.262 893.326 546.637C892.576 546.012 891.601 547.175 892.351 547.8Z" fill="white"/>
<path d="M876.673 557.101C877.423 557.726 878.399 556.564 877.648 555.939C876.886 555.314 875.923 556.476 876.673 557.101Z" fill="white"/>
<path d="M904.541 551.738C903.24 553.288 901.953 554.838 900.652 556.389C900.027 557.139 901.19 558.114 901.815 557.364C903.115 555.814 904.403 554.263 905.703 552.713C906.328 551.963 905.166 550.988 904.541 551.738Z" fill="white"/>
<path d="M887.313 555.789C886.45 556.826 885.587 557.852 884.725 558.889C884.1 559.639 885.262 560.615 885.887 559.864C886.75 558.827 887.613 557.802 888.475 556.764C889.113 556.014 887.95 555.039 887.313 555.789Z" fill="white"/>
<path d="M899.827 543.187C899.502 543.574 899.177 543.962 898.852 544.349C898.227 545.099 899.389 546.074 900.015 545.324C900.34 544.937 900.665 544.549 900.99 544.162C901.615 543.412 900.452 542.436 899.827 543.187Z" fill="white"/>
<path d="M880.011 546.387C879.474 547.037 878.936 547.675 878.386 548.325C877.761 549.075 878.924 550.05 879.549 549.3C880.086 548.65 880.624 548.012 881.174 547.362C881.812 546.612 880.649 545.637 880.011 546.387Z" fill="white"/>
<path d="M892.163 561.815C891.301 562.852 890.438 563.878 889.575 564.915C888.95 565.665 890.113 566.641 890.738 565.89C891.601 564.853 892.463 563.828 893.326 562.79C893.951 562.04 892.788 561.065 892.163 561.815Z" fill="white"/>
<path d="M891.488 538.186C891.051 538.698 890.626 539.223 890.188 539.736C889.563 540.486 890.726 541.461 891.351 540.711C891.788 540.198 892.213 539.673 892.651 539.161C893.276 538.411 892.113 537.436 891.488 538.186Z" fill="white"/>
<path d="M894.639 553.338C894.101 553.988 893.564 554.626 893.013 555.276C892.388 556.026 893.551 557.001 894.176 556.251C894.714 555.601 895.251 554.964 895.801 554.313C896.427 553.563 895.264 552.588 894.639 553.338Z" fill="white"/>
<path d="M926.907 508.818C927.657 509.443 928.632 508.281 927.882 507.655C927.132 507.03 926.157 508.193 926.907 508.818Z" fill="white"/>
<path d="M901.24 510.756C899.94 512.306 898.652 513.856 897.352 515.407C896.727 516.157 897.889 517.132 898.514 516.382C899.815 514.832 901.102 513.281 902.403 511.731C903.028 510.981 901.865 510.006 901.24 510.756Z" fill="white"/>
<path d="M925.094 532.672C924.231 533.71 923.369 534.735 922.506 535.773C921.881 536.523 923.044 537.498 923.669 536.748C924.531 535.71 925.394 534.685 926.257 533.647C926.882 532.885 925.719 531.922 925.094 532.672Z" fill="white"/>
<path d="M919.005 512.756C919.755 513.381 920.731 512.219 919.98 511.594C919.23 510.968 918.255 512.131 919.005 512.756Z" fill="white"/>
<path d="M918.468 498.804C917.393 500.092 916.305 501.392 915.23 502.68C914.605 503.43 915.767 504.405 916.392 503.655C917.468 502.367 918.555 501.067 919.631 499.779C920.268 499.029 919.105 498.054 918.468 498.804Z" fill="white"/>
<path d="M938.459 509.581C937.271 511.006 936.083 512.431 934.896 513.844C934.27 514.594 935.433 515.569 936.058 514.819C937.246 513.394 938.434 511.969 939.621 510.556C940.247 509.806 939.084 508.831 938.459 509.581Z" fill="white"/>
<path d="M919.231 511.294C917.605 513.231 915.992 515.169 914.367 517.107C913.742 517.857 914.905 518.832 915.53 518.082C917.155 516.144 918.768 514.207 920.393 512.269C921.018 511.519 919.856 510.543 919.231 511.294Z" fill="white"/>
<path d="M929.082 505.03C927.457 506.968 925.844 508.906 924.219 510.844C923.594 511.594 924.756 512.569 925.381 511.819C927.007 509.881 928.619 507.943 930.245 506.005C930.87 505.255 929.707 504.28 929.082 505.03Z" fill="white"/>
<path d="M914.455 546.174C913.592 547.212 912.729 548.237 911.867 549.275C911.242 550.025 912.404 551 913.029 550.25C913.892 549.213 914.755 548.187 915.617 547.15C916.243 546.4 915.08 545.437 914.455 546.174Z" fill="white"/>
<path d="M887.1 529.247C886.45 530.022 885.8 530.797 885.15 531.572C884.524 532.322 885.687 533.297 886.312 532.547C886.962 531.772 887.613 530.997 888.263 530.222C888.888 529.472 887.725 528.497 887.1 529.247Z" fill="white"/>
<path d="M880.636 569.303C880.099 569.954 879.561 570.591 879.011 571.241C878.386 571.991 879.549 572.967 880.174 572.216C880.711 571.566 881.249 570.929 881.799 570.279C882.424 569.528 881.262 568.553 880.636 569.303Z" fill="white"/>
<path d="M894.751 522.458C894.426 522.846 894.101 523.233 893.776 523.621C893.151 524.371 894.314 525.346 894.939 524.596C895.264 524.208 895.589 523.821 895.914 523.433C896.539 522.683 895.377 521.708 894.751 522.458Z" fill="white"/>
<path d="M908.466 503.292C909.216 503.917 910.191 502.755 909.441 502.13C908.691 501.492 907.716 502.655 908.466 503.292Z" fill="white"/>
<path d="M955.299 505.205C954.974 505.593 954.649 505.98 954.324 506.368C953.699 507.118 954.862 508.093 955.487 507.343C955.812 506.955 956.137 506.568 956.462 506.18C957.087 505.418 955.924 504.455 955.299 505.205Z" fill="white"/>
<path d="M932.295 520.895C931.22 522.183 930.132 523.483 929.057 524.771C928.432 525.521 929.595 526.496 930.22 525.746C931.295 524.458 932.383 523.158 933.458 521.87C934.083 521.12 932.92 520.145 932.295 520.895Z" fill="white"/>
<path d="M917.393 530.847C916.63 531.747 915.88 532.66 915.117 533.56C914.492 534.31 915.655 535.285 916.28 534.535C917.042 533.635 917.793 532.722 918.555 531.822C919.18 531.072 918.018 530.097 917.393 530.847Z" fill="white"/>
<path d="M897.039 568.191C897.789 568.816 898.765 567.653 898.014 567.028C897.264 566.403 896.289 567.566 897.039 568.191Z" fill="white"/>
<path d="M908.241 524.846C908.991 525.471 909.966 524.308 909.216 523.683C908.466 523.058 907.491 524.221 908.241 524.846Z" fill="white"/>
<path d="M913.605 556.664C912.304 558.214 911.017 559.764 909.716 561.315C909.091 562.065 910.254 563.04 910.879 562.29C912.179 560.739 913.467 559.189 914.767 557.639C915.392 556.889 914.23 555.914 913.605 556.664Z" fill="white"/>
<path d="M834.966 592.407C836.154 590.982 837.342 589.557 838.529 588.144C839.154 587.394 837.992 586.419 837.367 587.169C836.179 588.594 834.991 590.019 833.804 591.432C833.166 592.195 834.329 593.157 834.966 592.407Z" fill="white"/>
<path d="M846.181 581.355C847.043 580.318 847.906 579.293 848.769 578.255C849.394 577.505 848.231 576.53 847.606 577.28C846.743 578.317 845.881 579.343 845.018 580.38C844.38 581.13 845.543 582.106 846.181 581.355Z" fill="white"/>
<path d="M839.292 596.696C840.055 595.795 840.805 594.883 841.567 593.983C842.192 593.232 841.03 592.257 840.405 593.007C839.642 593.908 838.892 594.82 838.129 595.72C837.504 596.47 838.667 597.446 839.292 596.696Z" fill="white"/>
<path d="M862.483 583.131C863.133 582.356 863.783 581.58 864.434 580.805C865.059 580.055 863.896 579.08 863.271 579.83C862.621 580.605 861.971 581.38 861.32 582.156C860.695 582.906 861.858 583.881 862.483 583.131Z" fill="white"/>
<path d="M845.755 604.734C846.518 603.834 847.268 602.922 848.031 602.022C848.656 601.271 847.493 600.296 846.868 601.046C846.106 601.947 845.355 602.859 844.593 603.759C843.968 604.509 845.13 605.485 845.755 604.734Z" fill="white"/>
<path d="M852.382 586.544C851.519 587.581 850.656 588.607 849.794 589.644C849.168 590.394 850.331 591.37 850.956 590.62C851.819 589.582 852.682 588.557 853.544 587.519C854.169 586.769 853.007 585.794 852.382 586.544Z" fill="white"/>
<path d="M828.952 609.46C829.703 610.085 830.678 608.923 829.928 608.298C829.178 607.672 828.202 608.835 828.952 609.46Z" fill="white"/>
<path d="M841.142 613.398C839.842 614.949 838.554 616.499 837.254 618.049C836.629 618.799 837.791 619.774 838.417 619.024C839.717 617.474 841.005 615.924 842.305 614.374C842.93 613.623 841.767 612.648 841.142 613.398Z" fill="white"/>
<path d="M836.429 604.847C836.104 605.234 835.779 605.622 835.454 606.01C834.829 606.76 835.991 607.735 836.616 606.985C836.941 606.597 837.266 606.21 837.592 605.822C838.217 605.072 837.054 604.097 836.429 604.847Z" fill="white"/>
<path d="M828.09 599.846C827.652 600.359 827.227 600.884 826.79 601.396C826.165 602.146 827.327 603.122 827.952 602.371C828.39 601.859 828.815 601.334 829.253 600.821C829.878 600.071 828.715 599.096 828.09 599.846Z" fill="white"/>
<path d="M831.241 614.999C830.703 615.649 830.165 616.286 829.615 616.936C828.99 617.687 830.153 618.662 830.778 617.912C831.316 617.262 831.853 616.624 832.403 615.974C833.028 615.224 831.866 614.249 831.241 614.999Z" fill="white"/>
<path d="M863.509 570.479C864.259 571.104 865.234 569.941 864.484 569.316C863.734 568.691 862.758 569.854 863.509 570.479Z" fill="white"/>
<path d="M837.842 572.416C836.541 573.967 835.254 575.517 833.953 577.067C833.328 577.817 834.491 578.793 835.116 578.042C836.416 576.492 837.704 574.942 839.004 573.392C839.629 572.642 838.467 571.666 837.842 572.416Z" fill="white"/>
<path d="M861.696 594.333C860.833 595.37 859.97 596.396 859.108 597.433C858.482 598.183 859.645 599.159 860.27 598.408C861.133 597.371 861.996 596.346 862.858 595.308C863.483 594.558 862.321 593.583 861.696 594.333Z" fill="white"/>
<path d="M855.607 574.417C856.357 575.042 857.332 573.879 856.582 573.254C855.832 572.629 854.857 573.792 855.607 574.417Z" fill="white"/>
<path d="M855.07 560.464C853.994 561.752 852.907 563.052 851.832 564.34C851.206 565.09 852.369 566.065 852.994 565.315C854.069 564.028 855.157 562.727 856.232 561.44C856.87 560.69 855.707 559.714 855.07 560.464Z" fill="white"/>
<path d="M875.06 571.241C873.873 572.667 872.685 574.092 871.497 575.505C870.872 576.255 872.035 577.23 872.66 576.48C873.848 575.054 875.035 573.629 876.223 572.216C876.848 571.466 875.686 570.491 875.06 571.241Z" fill="white"/>
<path d="M855.832 572.954C854.207 574.892 852.594 576.83 850.969 578.768C850.344 579.518 851.507 580.493 852.132 579.743C853.757 577.805 855.37 575.867 856.995 573.929C857.62 573.179 856.457 572.204 855.832 572.954Z" fill="white"/>
<path d="M865.684 566.691C864.059 568.628 862.446 570.566 860.821 572.504C860.195 573.254 861.358 574.229 861.983 573.479C863.608 571.541 865.221 569.604 866.847 567.666C867.472 566.916 866.309 565.94 865.684 566.691Z" fill="white"/>
<path d="M851.057 607.848C850.194 608.885 849.331 609.91 848.469 610.948C847.843 611.698 849.006 612.673 849.631 611.923C850.494 610.886 851.357 609.86 852.219 608.823C852.844 608.073 851.682 607.097 851.057 607.848Z" fill="white"/>
<path d="M823.702 590.907C823.052 591.682 822.402 592.457 821.751 593.232C821.126 593.983 822.289 594.958 822.914 594.208C823.564 593.433 824.214 592.657 824.864 591.882C825.49 591.132 824.327 590.157 823.702 590.907Z" fill="white"/>
<path d="M831.353 584.118C831.028 584.506 830.703 584.894 830.378 585.281C829.753 586.031 830.915 587.006 831.54 586.256C831.865 585.869 832.191 585.481 832.516 585.094C833.141 584.343 831.978 583.368 831.353 584.118Z" fill="white"/>
<path d="M845.068 564.953C845.818 565.578 846.793 564.415 846.043 563.79C845.293 563.165 844.318 564.328 845.068 564.953Z" fill="white"/>
<path d="M891.901 566.866C891.576 567.253 891.251 567.641 890.926 568.028C890.301 568.778 891.463 569.754 892.088 569.003C892.413 568.616 892.739 568.228 893.064 567.841C893.689 567.091 892.526 566.115 891.901 566.866Z" fill="white"/>
<path d="M868.897 582.556C867.822 583.843 866.734 585.144 865.659 586.431C865.034 587.181 866.197 588.157 866.822 587.406C867.897 586.119 868.985 584.819 870.06 583.531C870.685 582.781 869.522 581.806 868.897 582.556Z" fill="white"/>
<path d="M853.994 592.507C853.232 593.407 852.482 594.32 851.719 595.22C851.094 595.97 852.257 596.946 852.882 596.195C853.644 595.295 854.394 594.383 855.157 593.482C855.782 592.732 854.619 591.757 853.994 592.507Z" fill="white"/>
<path d="M850.194 618.324C848.893 619.875 847.606 621.425 846.305 622.975C845.68 623.725 846.843 624.7 847.468 623.95C848.768 622.4 850.056 620.85 851.356 619.299C851.994 618.549 850.831 617.574 850.194 618.324Z" fill="white"/>
<path d="M880.649 597.658C881.837 596.233 883.024 594.808 884.212 593.395C884.837 592.645 883.674 591.67 883.049 592.42C881.862 593.845 880.674 595.27 879.486 596.683C878.861 597.433 880.024 598.408 880.649 597.658Z" fill="white"/>
<path d="M891.876 586.606C892.739 585.569 893.601 584.543 894.464 583.506C895.089 582.756 893.926 581.78 893.301 582.531C892.439 583.568 891.576 584.593 890.713 585.631C890.076 586.381 891.238 587.356 891.876 586.606Z" fill="white"/>
<path d="M884.987 601.934C885.75 601.034 886.5 600.121 887.262 599.221C887.887 598.471 886.725 597.496 886.1 598.246C885.337 599.146 884.587 600.059 883.824 600.959C883.199 601.709 884.362 602.684 884.987 601.934Z" fill="white"/>
<path d="M908.179 588.382C908.829 587.606 909.479 586.831 910.129 586.056C910.754 585.306 909.591 584.331 908.966 585.081C908.316 585.856 907.666 586.631 907.016 587.406C906.391 588.157 907.553 589.132 908.179 588.382Z" fill="white"/>
<path d="M891.451 609.973C892.213 609.073 892.964 608.16 893.726 607.26C894.351 606.51 893.189 605.535 892.563 606.285C891.801 607.185 891.051 608.098 890.288 608.998C889.663 609.748 890.826 610.723 891.451 609.973Z" fill="white"/>
<path d="M898.077 591.795C897.214 592.832 896.352 593.858 895.489 594.895C894.864 595.645 896.026 596.621 896.652 595.87C897.514 594.833 898.377 593.808 899.24 592.77C899.865 592.02 898.702 591.045 898.077 591.795Z" fill="white"/>
<path d="M874.648 614.711C875.398 615.336 876.373 614.174 875.623 613.549C874.86 612.923 873.898 614.086 874.648 614.711Z" fill="white"/>
<path d="M886.837 618.637C885.537 620.187 884.249 621.737 882.949 623.288C882.324 624.038 883.487 625.013 884.112 624.263C885.412 622.713 886.7 621.162 888 619.612C888.625 618.862 887.462 617.887 886.837 618.637Z" fill="white"/>
<path d="M869.609 622.7C868.747 623.738 867.884 624.763 867.022 625.801C866.396 626.551 867.559 627.526 868.184 626.776C869.047 625.738 869.91 624.713 870.772 623.675C871.397 622.913 870.235 621.95 869.609 622.7Z" fill="white"/>
<path d="M882.124 610.085C881.799 610.473 881.474 610.86 881.149 611.248C880.524 611.998 881.687 612.973 882.312 612.223C882.637 611.836 882.962 611.448 883.287 611.06C883.912 610.31 882.749 609.335 882.124 610.085Z" fill="white"/>
<path d="M862.308 613.298C861.771 613.949 861.233 614.586 860.683 615.236C860.058 615.986 861.22 616.962 861.846 616.211C862.383 615.561 862.921 614.924 863.471 614.274C864.096 613.523 862.933 612.548 862.308 613.298Z" fill="white"/>
<path d="M874.46 628.726C873.598 629.764 872.735 630.789 871.873 631.826C871.247 632.577 872.41 633.552 873.035 632.802C873.898 631.764 874.761 630.739 875.623 629.701C876.248 628.951 875.086 627.976 874.46 628.726Z" fill="white"/>
<path d="M873.785 605.097C873.348 605.61 872.923 606.135 872.485 606.647C871.86 607.397 873.023 608.373 873.648 607.622C874.085 607.11 874.51 606.585 874.948 606.072C875.573 605.322 874.41 604.347 873.785 605.097Z" fill="white"/>
<path d="M876.936 620.25C876.398 620.9 875.861 621.537 875.311 622.187C874.685 622.938 875.848 623.913 876.473 623.163C877.011 622.513 877.548 621.875 878.099 621.225C878.724 620.475 877.561 619.499 876.936 620.25Z" fill="white"/>
<path d="M909.204 575.729C909.954 576.355 910.929 575.192 910.179 574.567C909.429 573.929 908.454 575.092 909.204 575.729Z" fill="white"/>
<path d="M883.537 577.655C882.237 579.205 880.949 580.755 879.649 582.306C879.024 583.056 880.186 584.031 880.811 583.281C882.112 581.73 883.399 580.18 884.7 578.63C885.325 577.88 884.162 576.905 883.537 577.655Z" fill="white"/>
<path d="M907.391 599.571C906.528 600.609 905.666 601.634 904.803 602.672C904.178 603.422 905.341 604.397 905.966 603.647C906.828 602.609 907.691 601.584 908.554 600.546C909.179 599.796 908.016 598.821 907.391 599.571Z" fill="white"/>
<path d="M901.302 579.655C902.053 580.28 903.028 579.118 902.278 578.492C901.527 577.867 900.552 579.03 901.302 579.655Z" fill="white"/>
<path d="M900.765 565.715C899.69 567.003 898.602 568.303 897.527 569.591C896.902 570.341 898.064 571.316 898.69 570.566C899.765 569.278 900.852 567.978 901.928 566.69C902.553 565.928 901.39 564.965 900.765 565.715Z" fill="white"/>
<path d="M920.756 576.48C919.568 577.905 918.38 579.33 917.193 580.743C916.568 581.493 917.73 582.468 918.355 581.718C919.543 580.293 920.731 578.867 921.918 577.455C922.544 576.705 921.381 575.729 920.756 576.48Z" fill="white"/>
<path d="M901.527 578.205C899.902 580.143 898.289 582.081 896.664 584.018C896.039 584.769 897.202 585.744 897.827 584.994C899.452 583.056 901.065 581.118 902.69 579.18C903.315 578.43 902.152 577.455 901.527 578.205Z" fill="white"/>
<path d="M911.379 571.941C909.754 573.879 908.141 575.817 906.516 577.755C905.891 578.505 907.053 579.48 907.679 578.73C909.304 576.792 910.917 574.854 912.542 572.917C913.167 572.166 912.004 571.191 911.379 571.941Z" fill="white"/>
<path d="M896.752 613.086C895.889 614.124 895.026 615.149 894.164 616.186C893.538 616.937 894.701 617.912 895.326 617.162C896.189 616.124 897.052 615.099 897.914 614.061C898.539 613.311 897.377 612.336 896.752 613.086Z" fill="white"/>
<path d="M869.397 596.158C868.747 596.933 868.097 597.708 867.447 598.483C866.822 599.233 867.984 600.209 868.609 599.458C869.26 598.683 869.91 597.908 870.56 597.133C871.185 596.383 870.022 595.408 869.397 596.158Z" fill="white"/>
<path d="M862.921 636.215C862.383 636.865 861.846 637.503 861.295 638.153C860.67 638.903 861.833 639.878 862.458 639.128C862.996 638.478 863.533 637.84 864.083 637.19C864.721 636.44 863.558 635.465 862.921 636.215Z" fill="white"/>
<path d="M877.036 589.369C876.711 589.757 876.386 590.144 876.061 590.532C875.435 591.282 876.598 592.257 877.223 591.507C877.548 591.12 877.873 590.732 878.198 590.345C878.836 589.594 877.673 588.619 877.036 589.369Z" fill="white"/>
<path d="M891.276 575.892C892.026 576.517 893.001 575.354 892.251 574.729C891.488 574.104 890.526 575.267 891.276 575.892Z" fill="white"/>
<path d="M937.596 572.104C937.271 572.491 936.946 572.879 936.621 573.267C935.996 574.017 937.158 574.992 937.783 574.242C938.108 573.854 938.434 573.467 938.759 573.079C939.384 572.329 938.221 571.354 937.596 572.104Z" fill="white"/>
<path d="M914.592 587.807C913.517 589.094 912.429 590.395 911.354 591.682C910.729 592.432 911.892 593.408 912.517 592.657C913.592 591.37 914.68 590.07 915.755 588.782C916.38 588.032 915.217 587.056 914.592 587.807Z" fill="white"/>
<path d="M899.69 597.746C898.927 598.646 898.177 599.559 897.414 600.459C896.789 601.209 897.952 602.184 898.577 601.434C899.34 600.534 900.09 599.621 900.852 598.721C901.477 597.971 900.315 596.996 899.69 597.746Z" fill="white"/>
<path d="M879.336 635.102C880.086 635.727 881.061 634.564 880.311 633.939C879.561 633.314 878.586 634.477 879.336 635.102Z" fill="white"/>
<path d="M895.889 623.575C894.589 625.125 893.301 626.676 892.001 628.226C891.376 628.976 892.538 629.951 893.163 629.201C894.464 627.651 895.751 626.1 897.052 624.55C897.689 623.8 896.526 622.825 895.889 623.575Z" fill="white"/>
<path d="M941.347 529.784C942.534 528.359 943.722 526.934 944.91 525.521C945.535 524.771 944.372 523.796 943.747 524.546C942.559 525.971 941.372 527.396 940.184 528.809C939.559 529.559 940.722 530.522 941.347 529.784Z" fill="white"/>
<path d="M952.561 518.72C953.424 517.682 954.286 516.657 955.149 515.619C955.774 514.869 954.611 513.894 953.986 514.644C953.124 515.682 952.261 516.707 951.398 517.745C950.773 518.507 951.936 519.47 952.561 518.72Z" fill="white"/>
<path d="M945.672 534.06C946.435 533.16 947.185 532.247 947.948 531.347C948.573 530.597 947.41 529.622 946.785 530.372C946.022 531.272 945.272 532.185 944.51 533.085C943.885 533.835 945.047 534.81 945.672 534.06Z" fill="white"/>
<path d="M968.864 520.495C969.514 519.72 970.164 518.945 970.814 518.17C971.439 517.42 970.277 516.444 969.651 517.195C969.001 517.97 968.351 518.745 967.701 519.52C967.076 520.27 968.239 521.245 968.864 520.495Z" fill="white"/>
<path d="M952.136 542.099C952.899 541.199 953.649 540.286 954.412 539.386C955.037 538.636 953.874 537.66 953.249 538.411C952.486 539.311 951.736 540.223 950.973 541.124C950.348 541.874 951.511 542.849 952.136 542.099Z" fill="white"/>
<path d="M958.762 523.908C957.9 524.946 957.037 525.971 956.174 527.009C955.549 527.759 956.712 528.734 957.337 527.984C958.2 526.946 959.062 525.921 959.925 524.883C960.55 524.133 959.387 523.158 958.762 523.908Z" fill="white"/>
<path d="M935.333 546.825C936.083 547.45 937.058 546.287 936.308 545.662C935.558 545.037 934.583 546.2 935.333 546.825Z" fill="white"/>
<path d="M914.192 567.378C914.942 568.003 915.917 566.84 915.167 566.215C914.417 565.59 913.442 566.753 914.192 567.378Z" fill="white"/>
<path d="M947.523 550.763C946.223 552.313 944.935 553.863 943.635 555.414C943.009 556.164 944.172 557.139 944.797 556.389C946.097 554.838 947.385 553.288 948.685 551.738C949.323 550.988 948.16 550.013 947.523 550.763Z" fill="white"/>
<path d="M930.307 554.813C929.445 555.851 928.582 556.876 927.719 557.914C927.094 558.664 928.257 559.639 928.882 558.889C929.745 557.851 930.607 556.826 931.47 555.789C932.095 555.038 930.932 554.063 930.307 554.813Z" fill="white"/>
<path d="M942.81 542.211C942.484 542.599 942.159 542.986 941.834 543.374C941.209 544.124 942.372 545.099 942.997 544.349C943.322 543.962 943.647 543.574 943.972 543.186C944.61 542.436 943.447 541.461 942.81 542.211Z" fill="white"/>
<path d="M923.006 545.412C922.468 546.062 921.931 546.7 921.381 547.35C920.756 548.1 921.918 549.075 922.543 548.325C923.081 547.675 923.619 547.037 924.169 546.387C924.794 545.637 923.631 544.662 923.006 545.412Z" fill="white"/>
<path d="M935.145 560.839C934.283 561.877 933.42 562.902 932.558 563.94C931.932 564.69 933.095 565.665 933.72 564.915C934.583 563.877 935.446 562.852 936.308 561.815C936.933 561.064 935.771 560.089 935.145 560.839Z" fill="white"/>
<path d="M934.471 537.211C934.033 537.723 933.608 538.248 933.17 538.761C932.545 539.511 933.708 540.486 934.333 539.736C934.771 539.223 935.196 538.698 935.633 538.186C936.258 537.436 935.096 536.46 934.471 537.211Z" fill="white"/>
<path d="M937.621 552.363C937.083 553.013 936.546 553.651 935.996 554.301C935.371 555.051 936.533 556.026 937.158 555.276C937.696 554.626 938.234 553.988 938.784 553.338C939.409 552.588 938.246 551.613 937.621 552.363Z" fill="white"/>
<path d="M969.889 507.843C970.639 508.468 971.614 507.305 970.864 506.68C970.114 506.055 969.139 507.218 969.889 507.843Z" fill="white"/>
<path d="M944.222 509.781C942.922 511.331 941.634 512.881 940.334 514.432C939.709 515.182 940.872 516.157 941.497 515.407C942.797 513.857 944.085 512.306 945.385 510.756C946.01 510.006 944.847 509.031 944.222 509.781Z" fill="white"/>
<path d="M968.076 531.697C967.214 532.735 966.351 533.76 965.488 534.798C964.863 535.548 966.026 536.523 966.651 535.773C967.514 534.735 968.376 533.71 969.239 532.672C969.864 531.922 968.701 530.947 968.076 531.697Z" fill="white"/>
<path d="M961.988 511.781C962.738 512.406 963.713 511.244 962.963 510.618C962.213 509.993 961.238 511.156 961.988 511.781Z" fill="white"/>
<path d="M961.462 497.829C960.387 499.117 959.3 500.417 958.224 501.704C957.599 502.455 958.762 503.43 959.387 502.68C960.462 501.392 961.55 500.092 962.625 498.804C963.25 498.054 962.088 497.079 961.462 497.829Z" fill="white"/>
<path d="M981.441 508.606C980.253 510.031 979.065 511.456 977.878 512.869C977.253 513.619 978.415 514.594 979.04 513.844C980.228 512.419 981.416 510.993 982.604 509.581C983.229 508.831 982.066 507.855 981.441 508.606Z" fill="white"/>
<path d="M962.213 510.318C960.587 512.256 958.975 514.194 957.349 516.132C956.724 516.882 957.887 517.857 958.512 517.107C960.137 515.169 961.75 513.231 963.375 511.294C964 510.543 962.838 509.568 962.213 510.318Z" fill="white"/>
<path d="M972.064 504.055C970.439 505.993 968.826 507.93 967.201 509.868C966.576 510.618 967.739 511.594 968.364 510.843C969.989 508.906 971.602 506.968 973.227 505.03C973.852 504.28 972.69 503.305 972.064 504.055Z" fill="white"/>
<path d="M957.437 545.212C956.574 546.25 955.712 547.275 954.849 548.312C954.224 549.063 955.387 550.038 956.012 549.288C956.874 548.25 957.737 547.225 958.6 546.187C959.225 545.437 958.062 544.462 957.437 545.212Z" fill="white"/>
<path d="M930.082 528.271C929.432 529.047 928.782 529.822 928.132 530.597C927.507 531.347 928.67 532.322 929.295 531.572C929.945 530.797 930.595 530.022 931.245 529.247C931.87 528.497 930.707 527.521 930.082 528.271Z" fill="white"/>
<path d="M923.619 568.328C923.081 568.978 922.543 569.616 921.993 570.266C921.368 571.016 922.531 571.991 923.156 571.241C923.694 570.591 924.231 569.953 924.781 569.303C925.406 568.553 924.244 567.578 923.619 568.328Z" fill="white"/>
<path d="M937.734 521.483C937.408 521.87 937.083 522.258 936.758 522.645C936.133 523.396 937.296 524.371 937.921 523.621C938.246 523.233 938.571 522.845 938.896 522.458C939.521 521.708 938.359 520.733 937.734 521.483Z" fill="white"/>
<path d="M951.449 502.317C952.199 502.942 953.174 501.779 952.424 501.154C951.674 500.529 950.698 501.692 951.449 502.317Z" fill="white"/>
<path d="M998.281 504.23C997.956 504.617 997.631 505.005 997.306 505.393C996.681 506.143 997.844 507.118 998.469 506.368C998.794 505.98 999.119 505.593 999.444 505.205C1000.07 504.455 998.906 503.48 998.281 504.23Z" fill="white"/>
<path d="M975.277 519.92C974.202 521.208 973.115 522.508 972.039 523.796C971.414 524.546 972.577 525.521 973.202 524.771C974.277 523.483 975.365 522.183 976.44 520.895C977.065 520.145 975.903 519.17 975.277 519.92Z" fill="white"/>
<path d="M960.375 529.872C959.612 530.772 958.862 531.685 958.1 532.585C957.475 533.335 958.637 534.31 959.262 533.56C960.025 532.66 960.775 531.747 961.538 530.847C962.163 530.097 961 529.122 960.375 529.872Z" fill="white"/>
<path d="M940.021 567.228C940.772 567.853 941.747 566.69 940.997 566.065C940.246 565.44 939.271 566.603 940.021 567.228Z" fill="white"/>
<path d="M956.587 555.689C955.287 557.239 953.999 558.789 952.699 560.339C952.073 561.089 953.236 562.065 953.861 561.315C955.162 559.764 956.449 558.214 957.749 556.664C958.375 555.914 957.212 554.938 956.587 555.689Z" fill="white"/>
<path d="M922.969 613.261C924.156 611.836 925.344 610.41 926.532 608.998C927.157 608.247 925.994 607.272 925.369 608.022C924.181 609.448 922.994 610.873 921.806 612.286C921.181 613.036 922.343 614.011 922.969 613.261Z" fill="white"/>
<path d="M934.183 602.209C935.046 601.171 935.908 600.146 936.771 599.108C937.396 598.358 936.233 597.383 935.608 598.133C934.746 599.171 933.883 600.196 933.02 601.234C932.395 601.984 933.558 602.959 934.183 602.209Z" fill="white"/>
<path d="M927.294 617.537C928.057 616.636 928.807 615.724 929.57 614.824C930.195 614.074 929.032 613.098 928.407 613.848C927.644 614.749 926.894 615.661 926.132 616.561C925.506 617.312 926.669 618.287 927.294 617.537Z" fill="white"/>
<path d="M950.498 603.972C951.148 603.197 951.798 602.422 952.449 601.646C953.074 600.896 951.911 599.921 951.286 600.671C950.636 601.446 949.986 602.222 949.336 602.997C948.698 603.747 949.861 604.722 950.498 603.972Z" fill="white"/>
<path d="M933.758 625.575C934.52 624.675 935.271 623.763 936.033 622.862C936.658 622.112 935.496 621.137 934.87 621.887C934.108 622.787 933.358 623.7 932.595 624.6C931.97 625.35 933.133 626.326 933.758 625.575Z" fill="white"/>
<path d="M940.384 607.397C939.521 608.435 938.659 609.46 937.796 610.498C937.171 611.248 938.334 612.223 938.959 611.473C939.822 610.435 940.684 609.41 941.547 608.372C942.184 607.61 941.022 606.647 940.384 607.397Z" fill="white"/>
<path d="M916.955 630.301C917.705 630.926 918.68 629.764 917.93 629.139C917.18 628.514 916.205 629.676 916.955 630.301Z" fill="white"/>
<path d="M929.145 634.239C927.844 635.79 926.557 637.34 925.256 638.89C924.631 639.64 925.794 640.616 926.419 639.865C927.719 638.315 929.007 636.765 930.307 635.215C930.945 634.465 929.782 633.489 929.145 634.239Z" fill="white"/>
<path d="M911.929 638.29C911.067 639.328 910.204 640.353 909.341 641.391C908.716 642.141 909.879 643.116 910.504 642.366C911.367 641.328 912.229 640.303 913.092 639.265C913.717 638.515 912.554 637.54 911.929 638.29Z" fill="white"/>
<path d="M924.444 625.688C924.119 626.076 923.794 626.463 923.469 626.851C922.844 627.601 924.006 628.576 924.632 627.826C924.957 627.438 925.282 627.051 925.607 626.663C926.232 625.913 925.069 624.938 924.444 625.688Z" fill="white"/>
<path d="M904.628 628.901C904.09 629.551 903.553 630.189 903.003 630.839C902.378 631.589 903.54 632.564 904.165 631.814C904.703 631.164 905.241 630.526 905.791 629.876C906.416 629.113 905.253 628.151 904.628 628.901Z" fill="white"/>
<path d="M916.767 644.316C915.905 645.354 915.042 646.379 914.18 647.417C913.554 648.167 914.717 649.142 915.342 648.392C916.205 647.354 917.067 646.329 917.93 645.291C918.568 644.541 917.405 643.566 916.767 644.316Z" fill="white"/>
<path d="M916.092 620.687C915.655 621.2 915.23 621.725 914.792 622.237C914.167 622.987 915.33 623.963 915.955 623.213C916.392 622.7 916.817 622.175 917.255 621.662C917.88 620.912 916.717 619.937 916.092 620.687Z" fill="white"/>
<path d="M919.243 635.84C918.705 636.49 918.168 637.127 917.618 637.778C916.992 638.528 918.155 639.503 918.78 638.753C919.318 638.103 919.855 637.465 920.406 636.815C921.031 636.065 919.868 635.09 919.243 635.84Z" fill="white"/>
<path d="M951.511 591.32C952.261 591.945 953.236 590.782 952.486 590.157C951.736 589.532 950.761 590.695 951.511 591.32Z" fill="white"/>
<path d="M925.844 593.257C924.544 594.808 923.256 596.358 921.956 597.908C921.331 598.658 922.493 599.634 923.118 598.883C924.419 597.333 925.706 595.783 927.007 594.233C927.632 593.482 926.469 592.507 925.844 593.257Z" fill="white"/>
<path d="M949.698 615.174C948.835 616.211 947.973 617.237 947.11 618.274C946.485 619.024 947.648 620 948.273 619.249C949.136 618.212 949.998 617.187 950.861 616.149C951.486 615.399 950.323 614.424 949.698 615.174Z" fill="white"/>
<path d="M943.61 595.258C944.36 595.883 945.335 594.72 944.585 594.095C943.835 593.47 942.86 594.633 943.61 595.258Z" fill="white"/>
<path d="M943.084 581.306C942.009 582.593 940.922 583.893 939.846 585.181C939.221 585.931 940.384 586.906 941.009 586.156C942.084 584.869 943.172 583.568 944.247 582.281C944.872 581.531 943.71 580.555 943.084 581.306Z" fill="white"/>
<path d="M963.063 592.082C961.875 593.507 960.687 594.933 959.5 596.345C958.875 597.096 960.037 598.071 960.662 597.321C961.85 595.895 963.038 594.47 964.225 593.057C964.863 592.307 963.7 591.332 963.063 592.082Z" fill="white"/>
<path d="M943.835 593.808C942.209 595.745 940.597 597.683 938.971 599.621C938.346 600.371 939.509 601.346 940.134 600.596C941.759 598.658 943.372 596.721 944.997 594.783C945.635 594.02 944.472 593.057 943.835 593.808Z" fill="white"/>
<path d="M953.686 587.532C952.061 589.469 950.448 591.407 948.823 593.345C948.198 594.095 949.36 595.07 949.986 594.32C951.611 592.382 953.224 590.445 954.849 588.507C955.474 587.757 954.311 586.794 953.686 587.532Z" fill="white"/>
<path d="M939.059 628.688C938.196 629.726 937.334 630.751 936.471 631.789C935.846 632.539 937.008 633.514 937.634 632.764C938.496 631.726 939.359 630.701 940.222 629.664C940.847 628.913 939.684 627.938 939.059 628.688Z" fill="white"/>
<path d="M911.704 611.748C911.054 612.523 910.404 613.298 909.754 614.074C909.129 614.824 910.291 615.799 910.916 615.049C911.566 614.274 912.217 613.498 912.867 612.723C913.492 611.973 912.329 610.998 911.704 611.748Z" fill="white"/>
<path d="M905.241 651.817C904.703 652.467 904.165 653.105 903.615 653.755C902.99 654.505 904.153 655.48 904.778 654.73C905.316 654.08 905.853 653.443 906.403 652.793C907.028 652.03 905.866 651.067 905.241 651.817Z" fill="white"/>
<path d="M919.356 604.959C919.03 605.347 918.705 605.735 918.38 606.122C917.755 606.872 918.918 607.847 919.543 607.097C919.868 606.71 920.193 606.322 920.518 605.935C921.143 605.184 919.981 604.209 919.356 604.959Z" fill="white"/>
<path d="M933.07 585.794C933.82 586.419 934.795 585.256 934.045 584.631C933.295 584.006 932.32 585.169 933.07 585.794Z" fill="white"/>
<path d="M979.903 587.707C979.578 588.094 979.253 588.482 978.928 588.869C978.303 589.619 979.466 590.594 980.091 589.844C980.416 589.457 980.741 589.069 981.066 588.682C981.691 587.932 980.528 586.956 979.903 587.707Z" fill="white"/>
<path d="M956.899 603.397C955.824 604.684 954.736 605.985 953.661 607.272C953.036 608.022 954.199 608.998 954.824 608.247C955.899 606.96 956.987 605.66 958.062 604.372C958.687 603.622 957.524 602.647 956.899 603.397Z" fill="white"/>
<path d="M941.997 613.348C941.234 614.249 940.484 615.161 939.722 616.061C939.096 616.811 940.259 617.787 940.884 617.036C941.647 616.136 942.397 615.224 943.16 614.324C943.785 613.573 942.622 612.598 941.997 613.348Z" fill="white"/>
<path d="M921.656 650.705C922.406 651.33 923.381 650.167 922.631 649.542C921.868 648.917 920.906 650.08 921.656 650.705Z" fill="white"/>
<path d="M938.209 639.178C936.908 640.728 935.621 642.278 934.321 643.829C933.695 644.579 934.858 645.554 935.483 644.804C936.783 643.254 938.071 641.703 939.371 640.153C939.997 639.39 938.834 638.428 938.209 639.178Z" fill="white"/>
<path d="M977.428 555.989C978.616 554.563 979.803 553.138 980.991 551.725C981.616 550.975 980.453 550 979.828 550.75C978.641 552.175 977.453 553.601 976.265 555.013C975.64 555.764 976.803 556.739 977.428 555.989Z" fill="white"/>
<path d="M988.642 544.924C989.505 543.887 990.368 542.861 991.23 541.824C991.855 541.074 990.693 540.098 990.068 540.849C989.205 541.886 988.342 542.911 987.48 543.949C986.854 544.712 988.017 545.674 988.642 544.924Z" fill="white"/>
<path d="M981.754 560.264C982.516 559.364 983.266 558.452 984.029 557.551C984.654 556.801 983.491 555.826 982.866 556.576C982.104 557.476 981.354 558.389 980.591 559.289C979.966 560.039 981.128 561.015 981.754 560.264Z" fill="white"/>
<path d="M1004.96 546.7C1005.61 545.924 1006.26 545.149 1006.91 544.374C1007.53 543.624 1006.37 542.649 1005.75 543.399C1005.1 544.174 1004.44 544.949 1003.79 545.724C1003.16 546.475 1004.32 547.45 1004.96 546.7Z" fill="white"/>
<path d="M988.217 568.303C988.98 567.403 989.73 566.49 990.492 565.59C991.118 564.84 989.955 563.865 989.33 564.615C988.567 565.515 987.817 566.428 987.054 567.328C986.429 568.078 987.592 569.053 988.217 568.303Z" fill="white"/>
<path d="M994.843 550.113C993.98 551.15 993.118 552.176 992.255 553.213C991.63 553.963 992.793 554.938 993.418 554.188C994.281 553.151 995.143 552.125 996.006 551.088C996.643 550.338 995.481 549.363 994.843 550.113Z" fill="white"/>
<path d="M971.414 573.029C972.165 573.654 973.14 572.491 972.39 571.866C971.639 571.241 970.664 572.404 971.414 573.029Z" fill="white"/>
<path d="M983.604 576.967C982.304 578.518 981.016 580.068 979.716 581.618C979.091 582.368 980.253 583.343 980.879 582.593C982.179 581.043 983.466 579.493 984.767 577.942C985.404 577.192 984.242 576.217 983.604 576.967Z" fill="white"/>
<path d="M966.389 581.018C965.526 582.056 964.663 583.081 963.801 584.118C963.176 584.869 964.338 585.844 964.963 585.094C965.826 584.056 966.689 583.031 967.551 581.993C968.176 581.243 967.014 580.268 966.389 581.018Z" fill="white"/>
<path d="M978.903 568.416C978.578 568.803 978.253 569.191 977.928 569.578C977.303 570.329 978.465 571.304 979.09 570.554C979.416 570.166 979.741 569.778 980.066 569.391C980.691 568.641 979.528 567.666 978.903 568.416Z" fill="white"/>
<path d="M959.087 571.616C958.55 572.266 958.012 572.904 957.462 573.554C956.837 574.304 958 575.279 958.625 574.529C959.162 573.879 959.7 573.242 960.25 572.591C960.875 571.841 959.712 570.866 959.087 571.616Z" fill="white"/>
<path d="M971.227 587.044C970.364 588.082 969.501 589.107 968.639 590.144C968.014 590.895 969.176 591.87 969.802 591.12C970.664 590.082 971.527 589.057 972.389 588.019C973.027 587.269 971.864 586.294 971.227 587.044Z" fill="white"/>
<path d="M970.552 563.415C970.114 563.927 969.689 564.453 969.251 564.965C968.626 565.715 969.789 566.69 970.414 565.94C970.852 565.428 971.277 564.903 971.714 564.39C972.339 563.64 971.177 562.665 970.552 563.415Z" fill="white"/>
<path d="M973.702 578.567C973.165 579.218 972.627 579.855 972.077 580.505C971.452 581.255 972.614 582.231 973.24 581.48C973.777 580.83 974.315 580.193 974.865 579.543C975.49 578.793 974.327 577.817 973.702 578.567Z" fill="white"/>
<path d="M1005.97 534.047C1006.72 534.673 1007.7 533.51 1006.95 532.885C1006.2 532.26 1005.22 533.422 1005.97 534.047Z" fill="white"/>
<path d="M980.303 535.985C979.003 537.535 977.715 539.086 976.415 540.636C975.79 541.386 976.953 542.361 977.578 541.611C978.878 540.061 980.166 538.511 981.466 536.96C982.091 536.21 980.928 535.235 980.303 535.985Z" fill="white"/>
<path d="M1004.16 557.901C1003.29 558.939 1002.43 559.964 1001.57 561.002C1000.94 561.752 1002.11 562.727 1002.73 561.977C1003.59 560.939 1004.46 559.914 1005.32 558.877C1005.95 558.127 1004.78 557.151 1004.16 557.901Z" fill="white"/>
<path d="M998.069 537.986C998.819 538.611 999.794 537.448 999.044 536.823C998.294 536.198 997.319 537.361 998.069 537.986Z" fill="white"/>
<path d="M997.544 524.033C996.469 525.321 995.381 526.621 994.306 527.909C993.681 528.659 994.843 529.634 995.468 528.884C996.544 527.596 997.631 526.296 998.706 525.008C999.332 524.258 998.169 523.283 997.544 524.033Z" fill="white"/>
<path d="M1017.52 534.81C1016.33 536.235 1015.15 537.661 1013.96 539.073C1013.33 539.823 1014.5 540.799 1015.12 540.048C1016.31 538.623 1017.5 537.198 1018.68 535.785C1019.32 535.035 1018.16 534.06 1017.52 534.81Z" fill="white"/>
<path d="M998.294 536.523C996.669 538.461 995.056 540.398 993.431 542.336C992.806 543.086 993.968 544.062 994.593 543.311C996.219 541.374 997.831 539.436 999.457 537.498C1000.09 536.748 998.932 535.773 998.294 536.523Z" fill="white"/>
<path d="M1008.15 530.259C1006.52 532.197 1004.91 534.135 1003.28 536.073C1002.66 536.823 1003.82 537.798 1004.44 537.048C1006.07 535.11 1007.68 533.172 1009.31 531.234C1009.93 530.484 1008.77 529.509 1008.15 530.259Z" fill="white"/>
<path d="M993.518 571.416C992.655 572.454 991.793 573.479 990.93 574.517C990.305 575.267 991.468 576.242 992.093 575.492C992.956 574.454 993.818 573.429 994.681 572.391C995.306 571.641 994.143 570.666 993.518 571.416Z" fill="white"/>
<path d="M966.163 554.476C965.513 555.251 964.863 556.026 964.213 556.801C963.588 557.551 964.751 558.527 965.376 557.776C966.026 557.001 966.676 556.226 967.326 555.451C967.951 554.701 966.788 553.726 966.163 554.476Z" fill="white"/>
<path d="M959.7 594.533C959.162 595.183 958.625 595.82 958.075 596.471C957.449 597.221 958.612 598.196 959.237 597.446C959.775 596.796 960.312 596.158 960.863 595.508C961.488 594.758 960.325 593.783 959.7 594.533Z" fill="white"/>
<path d="M973.815 547.687C973.49 548.075 973.165 548.462 972.84 548.85C972.215 549.6 973.377 550.575 974.002 549.825C974.327 549.438 974.652 549.05 974.978 548.662C975.603 547.912 974.44 546.937 973.815 547.687Z" fill="white"/>
<path d="M987.529 528.522C988.28 529.147 989.255 527.984 988.505 527.359C987.755 526.734 986.779 527.896 987.529 528.522Z" fill="white"/>
<path d="M1034.36 530.434C1034.04 530.822 1033.71 531.209 1033.39 531.597C1032.76 532.347 1033.92 533.322 1034.55 532.572C1034.88 532.185 1035.2 531.797 1035.53 531.409C1036.15 530.659 1034.99 529.684 1034.36 530.434Z" fill="white"/>
<path d="M1011.36 546.124C1010.28 547.412 1009.2 548.712 1008.12 550C1007.5 550.75 1008.66 551.725 1009.28 550.975C1010.36 549.688 1011.45 548.387 1012.52 547.1C1013.15 546.35 1011.98 545.374 1011.36 546.124Z" fill="white"/>
<path d="M996.456 556.076C995.693 556.976 994.943 557.889 994.181 558.789C993.555 559.539 994.718 560.514 995.343 559.764C996.106 558.864 996.856 557.951 997.619 557.051C998.244 556.301 997.081 555.326 996.456 556.076Z" fill="white"/>
<path d="M976.115 593.433C976.865 594.058 977.84 592.895 977.09 592.27C976.328 591.645 975.365 592.807 976.115 593.433Z" fill="white"/>
<path d="M992.668 581.893C991.368 583.443 990.08 584.994 988.78 586.544C988.155 587.294 989.317 588.269 989.943 587.519C991.243 585.969 992.531 584.418 993.831 582.868C994.456 582.118 993.293 581.143 992.668 581.893Z" fill="white"/>
<path d="M950.636 457.159C951.823 455.734 953.011 454.309 954.199 452.896C954.824 452.146 953.661 451.171 953.036 451.921C951.848 453.346 950.661 454.771 949.473 456.184C948.848 456.934 950.011 457.91 950.636 457.159Z" fill="white"/>
<path d="M954.974 461.435C955.736 460.535 956.487 459.622 957.249 458.722C957.874 457.972 956.712 456.997 956.087 457.747C955.324 458.647 954.574 459.56 953.811 460.46C953.186 461.21 954.349 462.185 954.974 461.435Z" fill="white"/>
<path d="M961.438 469.474C962.2 468.574 962.95 467.661 963.713 466.761C964.338 466.011 963.175 465.036 962.55 465.786C961.788 466.686 961.038 467.599 960.275 468.499C959.65 469.249 960.813 470.224 961.438 469.474Z" fill="white"/>
<path d="M944.635 474.212C945.385 474.837 946.36 473.675 945.61 473.05C944.847 472.425 943.884 473.587 944.635 474.212Z" fill="white"/>
<path d="M956.824 478.138C955.524 479.688 954.236 481.238 952.936 482.789C952.311 483.539 953.474 484.514 954.099 483.764C955.399 482.214 956.687 480.663 957.987 479.113C958.612 478.363 957.449 477.388 956.824 478.138Z" fill="white"/>
<path d="M939.596 482.201C938.734 483.239 937.871 484.264 937.008 485.302C936.383 486.052 937.546 487.027 938.171 486.277C939.034 485.239 939.896 484.214 940.759 483.176C941.397 482.426 940.234 481.451 939.596 482.201Z" fill="white"/>
<path d="M952.111 469.587C951.786 469.974 951.461 470.362 951.136 470.749C950.511 471.499 951.673 472.475 952.299 471.724C952.624 471.337 952.949 470.949 953.274 470.562C953.899 469.812 952.736 468.836 952.111 469.587Z" fill="white"/>
<path d="M932.295 472.8C931.758 473.45 931.22 474.087 930.67 474.737C930.045 475.487 931.208 476.463 931.833 475.713C932.37 475.062 932.908 474.425 933.458 473.775C934.096 473.025 932.933 472.049 932.295 472.8Z" fill="white"/>
<path d="M944.447 488.227C943.585 489.265 942.722 490.29 941.859 491.328C941.234 492.078 942.397 493.053 943.022 492.303C943.885 491.265 944.747 490.24 945.61 489.202C946.235 488.452 945.072 487.477 944.447 488.227Z" fill="white"/>
<path d="M943.772 464.598C943.335 465.111 942.91 465.636 942.472 466.148C941.847 466.899 943.01 467.874 943.635 467.124C944.072 466.611 944.497 466.086 944.935 465.573C945.56 464.823 944.397 463.848 943.772 464.598Z" fill="white"/>
<path d="M946.923 479.751C946.385 480.401 945.848 481.038 945.297 481.689C944.672 482.439 945.835 483.414 946.46 482.664C946.998 482.014 947.535 481.376 948.085 480.726C948.711 479.976 947.548 479.001 946.923 479.751Z" fill="white"/>
<path d="M966.738 472.587C965.876 473.625 965.013 474.65 964.15 475.688C963.525 476.438 964.688 477.413 965.313 476.663C966.176 475.625 967.038 474.6 967.901 473.562C968.526 472.812 967.363 471.837 966.738 472.587Z" fill="white"/>
<path d="M939.384 455.659C938.734 456.434 938.084 457.209 937.434 457.985C936.808 458.735 937.971 459.71 938.596 458.96C939.246 458.185 939.896 457.409 940.547 456.634C941.172 455.884 940.009 454.909 939.384 455.659Z" fill="white"/>
<path d="M932.908 495.716C932.37 496.366 931.833 497.004 931.283 497.654C930.658 498.404 931.82 499.379 932.445 498.629C932.983 497.979 933.52 497.341 934.071 496.691C934.708 495.941 933.545 494.966 932.908 495.716Z" fill="white"/>
<path d="M949.323 494.603C950.073 495.228 951.048 494.066 950.298 493.441C949.548 492.816 948.573 493.978 949.323 494.603Z" fill="white"/>
<path d="M965.876 483.076C964.576 484.627 963.288 486.177 961.988 487.727C961.363 488.477 962.525 489.452 963.15 488.702C964.451 487.152 965.738 485.602 967.038 484.051C967.676 483.301 966.513 482.326 965.876 483.076Z" fill="white"/>
<path fill-rule="evenodd" clip-rule="evenodd" d="M1422.16 948.322C1429.1 943.162 1422.56 938.115 1417.82 933.307C1410.03 925.9 1400.87 918.72 1390.42 911.839C1379.52 904.184 1368.84 896.481 1359.23 888.597C1356.69 886.48 1351.39 885.795 1349.25 883.61C1347.31 884.822 1348.06 888.184 1341.02 885.387C1340.77 885.26 1340.44 885.165 1340.07 885.117C1339.7 885.068 1339.32 885.068 1338.96 885.116C1338.61 885.164 1338.32 885.257 1338.11 885.384C1337.91 885.51 1337.81 885.663 1337.83 885.821C1337.72 888.785 1332.4 886.728 1329.75 887.351C1331.72 885.328 1334.08 883.601 1339.88 883.493L1341.4 884.253L1342.09 883.916C1341.28 883.885 1340.55 883.66 1339.74 883.544C1341.05 881.103 1349.26 879.83 1345.08 876.417C1342.84 874.972 1341.21 873.39 1340.28 871.746C1339.67 870.042 1336.05 871.243 1334.28 871.706C1332.5 872.168 1331.91 873.545 1328.91 872.587C1327.81 872.271 1326.89 871.847 1326.26 871.356C1325.63 870.864 1325.3 870.323 1325.32 869.784C1325.4 867.631 1325.02 865.431 1325.1 863.278C1325.3 858.077 1322.93 856.639 1310.87 854.82C1312.15 853.653 1313.69 852.542 1315.45 851.499C1317.31 850.682 1319.35 849.938 1321.54 849.275C1320.91 848.074 1318.4 848.451 1317.26 848.406C1306.82 847.995 1304.9 847.191 1309.83 843.604C1314.76 840.017 1314.8 835.398 1318.4 831.283C1320.24 829.255 1326.68 828.276 1324.84 825.403C1324.27 824.456 1324.92 823.474 1321.62 823.288C1318.32 823.102 1316.25 822.684 1316.11 820.942C1315.85 820.101 1316.15 819.265 1316.98 818.526C1317.81 817.788 1319.13 817.175 1320.8 816.758C1330.44 815.037 1334.5 811.36 1339.55 808.058C1340.93 807.161 1342.05 806.224 1343.29 805.405C1344.54 804.586 1344.89 804.264 1347.47 805.57C1350.05 806.876 1352.73 805.553 1352.74 805.162C1352.84 802.701 1357.43 802.741 1361.14 802.496C1367.9 802.09 1373.86 801.624 1375.6 798.5C1376.32 797.268 1378.44 798.304 1379.39 798.117C1383.33 797.321 1391.81 797.655 1385.82 794.03C1384.9 793.489 1385.43 793.539 1386.18 793.456C1390.72 792.935 1391.61 790.869 1395.22 789.919C1398.89 788.844 1403.16 788.141 1407.71 787.863C1415.61 787.474 1425.43 786.544 1428.16 782.143C1429.37 781.585 1430.87 781.154 1432.57 780.883C1434.28 780.611 1436.13 780.504 1438 780.57C1440.74 780.697 1443.44 780.514 1445.84 780.041C1448.23 779.568 1450.22 778.823 1451.6 777.885C1458.07 774.331 1468.71 774.751 1478.68 774.975C1482.32 775.119 1486.34 775.865 1487.97 773.689C1488.61 772.846 1491.17 773.003 1492.5 773.447C1497.58 775.001 1503.51 775.944 1509.59 776.165C1511.49 776.359 1513.26 776.787 1514.64 777.393C1516.03 777.998 1516.97 778.751 1517.34 779.551C1519.5 783.109 1526.08 785.497 1530.48 788.471C1539.23 794.081 1551.33 798.479 1560.69 803.805C1561.02 803.986 1561.07 804.38 1561.47 804.452C1581.54 808.547 1584.85 817.107 1593.95 823.992C1604.23 831.762 1617.3 838.915 1627.18 846.614C1640.78 857.428 1654.24 868.237 1665.4 879.487C1672.35 886.318 1677.91 893.34 1682.04 900.476C1683.8 903.626 1687.65 906.998 1678.39 909.042C1676.63 909.449 1678.35 910.105 1678.74 910.624C1683.82 914.069 1687.34 917.84 1689.09 921.731L1688.97 924.667C1686.65 928.832 1677.86 929.354 1669.8 930.297C1669.13 930.27 1668.46 930.048 1667.73 929.907L1667.69 930.774C1671.85 933.178 1676.13 932.283 1680.22 931.267C1686.23 935.985 1682.71 939.768 1678.11 943.675C1675.71 944.864 1672.35 945.642 1668.58 945.881C1664.8 946.119 1660.84 945.803 1657.36 944.986C1655.78 944.419 1653.92 944.021 1651.94 943.83C1649.96 943.64 1647.94 943.663 1646.07 943.897C1645.99 946.022 1651.68 948.655 1642.47 949.805C1639.76 950.118 1641.47 952.93 1641.33 954.633C1641.01 962.882 1636.31 964.097 1618.47 959.726C1613.33 958.459 1612.65 960.448 1609.41 960.489C1603.12 960.595 1597.26 961.564 1592.71 963.248C1591.14 963.695 1590.05 964.377 1589.65 965.169C1589.25 965.961 1589.55 966.809 1590.52 967.558C1593.26 971.448 1596.42 975.297 1598.96 979.094C1601.19 982.486 1604.23 985.855 1598.23 989.091C1596.75 990.642 1596.68 992.406 1598.04 994.069C1602.55 1002.65 1593.07 1008.88 1581.8 1015.83C1578.51 1010.36 1575.46 1005.7 1572.95 1000.98C1570.44 996.258 1565.45 994.577 1554.59 992.861C1548.27 992.022 1542.06 990.991 1536.03 989.777C1528.69 988.004 1522.69 986.255 1514.59 987.952C1512.21 988.447 1510.98 987.39 1509.31 986.904C1502.64 984.961 1495.64 983.088 1488.97 981.117C1486.04 980.274 1485.93 981.166 1484.69 981.817C1476.23 986.161 1476.09 986.155 1468.61 980.987C1466.5 979.602 1464.86 978.113 1463.73 976.566C1460.16 971.244 1447.2 968.241 1443.23 962.903C1442.07 961.373 1443.34 960.107 1441.64 958.584C1438.37 956.356 1433.79 954.492 1428.37 953.188C1429.89 950.559 1426.43 949.33 1422.16 948.322ZM1318.56 854.619L1319.67 853.906C1319.06 853.715 1318.41 853.548 1317.73 853.41C1317.27 853.501 1316.92 853.669 1316.77 853.876C1316.42 854.254 1317.09 854.449 1318.57 854.507L1318.56 854.619ZM1318.28 851.499C1317.86 851.767 1317.51 852.053 1317.24 852.354C1317.59 852.494 1317.99 852.605 1318.44 852.681C1318.95 852.485 1319.35 852.244 1319.61 851.971C1319.61 851.971 1318.89 851.551 1318.28 851.527L1318.28 851.499ZM1585.85 1012.49L1586.31 1012.74L1586.79 1012.53L1586.13 1012.28L1585.85 1012.49Z" fill="#FAF8F5"/>
</g>
</svg>
