<svg width="160" height="45" viewBox="0 0 160 45" fill="none" xmlns="http://www.w3.org/2000/svg">
<path fill-rule="evenodd" clip-rule="evenodd" d="M89.14 12.708C88.2067 11.7933 86.7693 11.336 84.828 11.336H76.932V32H85.164C86.4333 32 87.516 31.8227 88.412 31.468C89.3267 31.1133 90.0173 30.5253 90.484 29.704C90.9693 28.864 91.212 27.7253 91.212 26.288C91.212 25.2427 91.0253 24.3747 90.652 23.684C90.2973 22.9747 89.84 22.4333 89.28 22.06C88.7387 21.668 88.188 21.3973 87.628 21.248C88.4867 21.024 89.1867 20.5293 89.728 19.764C90.2693 18.98 90.54 17.9627 90.54 16.712C90.54 14.9573 90.0733 13.6227 89.14 12.708ZM86.564 19.316C86.1347 19.82 85.5747 20.072 84.884 20.072H80.376V14.444H84.8C85.4907 14.444 86.0693 14.6493 86.536 15.06C87.0213 15.4707 87.2547 16.208 87.236 17.272C87.2173 18.112 86.9933 18.7933 86.564 19.316ZM87.124 28.192C86.6013 28.6587 85.9107 28.892 85.052 28.892H80.376V22.76H85.052C85.8733 22.76 86.5547 23.0213 87.096 23.544C87.6373 24.048 87.908 24.7667 87.908 25.7C87.908 26.8947 87.6467 27.7253 87.124 28.192Z" fill="black"/>
<path fill-rule="evenodd" clip-rule="evenodd" d="M96.3399 31.468C97.3106 31.916 98.6079 32.14 100.232 32.14C101.389 32.14 102.388 32.084 103.228 31.972C104.087 31.86 104.899 31.7293 105.664 31.58V29.536H101.128C100.027 29.536 99.1866 29.4147 98.6079 29.172C98.0479 28.9293 97.6559 28.5373 97.4319 27.996C97.2266 27.436 97.1053 26.6893 97.0679 25.756H101.464C102.883 25.756 104.012 25.476 104.852 24.916C105.692 24.356 106.112 23.348 106.112 21.892C106.112 20.5667 105.907 19.5307 105.496 18.784C105.104 18.0373 104.469 17.524 103.592 17.244C102.715 16.9453 101.567 16.796 100.148 16.796C98.5239 16.796 97.2359 17.02 96.2839 17.468C95.3319 17.8973 94.6506 18.672 94.2399 19.792C93.8479 20.912 93.6519 22.48 93.6519 24.496C93.6519 26.4747 93.8573 28.024 94.2679 29.144C94.6973 30.2453 95.3879 31.02 96.3399 31.468ZM102.556 23.292C102.257 23.5347 101.781 23.656 101.128 23.656H97.0399C97.0399 22.5173 97.1333 21.6307 97.3199 20.996C97.5066 20.3613 97.8239 19.9227 98.2719 19.68C98.7386 19.4373 99.3639 19.316 100.148 19.316C101.193 19.316 101.931 19.5027 102.36 19.876C102.808 20.2493 103.032 20.9213 103.032 21.892C103.032 22.564 102.873 23.0307 102.556 23.292Z" fill="black"/>
<path d="M112.554 32.084C113.319 32.14 113.991 32.168 114.57 32.168C116.399 32.168 117.827 31.888 118.854 31.328C119.88 30.768 120.394 29.732 120.394 28.22V26.988C120.394 25.7747 120.039 24.832 119.33 24.16C118.62 23.4693 117.528 23.124 116.054 23.124H113.73C113.02 23.124 112.47 23.04 112.078 22.872C111.704 22.6853 111.518 22.284 111.518 21.668V21.136C111.518 20.5013 111.695 20.072 112.05 19.848C112.423 19.6053 112.955 19.484 113.646 19.484H119.75V17.44C119.376 17.3467 118.872 17.2533 118.238 17.16C117.603 17.0667 116.931 16.992 116.222 16.936C115.531 16.88 114.896 16.852 114.318 16.852C112.171 16.852 110.668 17.216 109.81 17.944C108.97 18.6533 108.55 19.7173 108.55 21.136V21.976C108.55 22.9653 108.746 23.7493 109.138 24.328C109.53 24.9067 110.062 25.3173 110.734 25.56C111.424 25.8027 112.208 25.924 113.086 25.924H115.354C116.1 25.924 116.632 26.064 116.95 26.344C117.267 26.6053 117.426 26.9693 117.426 27.436V27.968C117.426 28.64 117.23 29.0693 116.838 29.256C116.464 29.4427 115.932 29.536 115.242 29.536H108.774V31.58C109.166 31.7107 109.707 31.8227 110.398 31.916C111.088 31.9907 111.807 32.0467 112.554 32.084Z" fill="black"/>
<path d="M126.748 18.56L126.104 16.992H123.276V32H126.748V21.108C127.326 20.7347 127.905 20.436 128.484 20.212C129.062 19.988 129.716 19.876 130.444 19.876C131.209 19.876 131.816 20.1 132.264 20.548C132.712 20.996 132.936 21.6213 132.936 22.424V32H136.408V22.004C136.408 21.052 136.258 20.184 135.96 19.4C135.68 18.5973 135.204 17.9533 134.532 17.468C133.86 16.9827 132.936 16.74 131.76 16.74C130.808 16.74 129.884 16.9267 128.988 17.3C128.11 17.6733 127.364 18.0933 126.748 18.56Z" fill="black"/>
<path d="M139.789 14.108C139.789 14.444 139.967 14.612 140.321 14.612H142.953C143.289 14.612 143.457 14.444 143.457 14.108V11.56C143.457 11.1867 143.289 11 142.953 11H140.321C139.967 11 139.789 11.1867 139.789 11.56V14.108Z" fill="black"/>
<path d="M156.029 16.992L152.277 22.48H150.373V10.636H146.901V32H150.373V25.588H152.221L156.421 32H159.977L154.825 24.048L159.585 16.992H156.029Z" fill="black"/>
<path d="M139.873 16.992V32H143.345V16.992H139.873Z" fill="black"/>
<path d="M0 20.4545C0 9.15781 9.15781 0 20.4545 0H45V22.5C45 34.9264 34.9264 45 22.5 45C10.0736 45 0 34.9264 0 22.5V20.4545Z" fill="#FA7565"/>
<path d="M7 21.0909C7 13.3087 13.3087 7 21.0909 7H38V22.5C38 31.0604 31.0604 38 22.5 38C13.9396 38 7 31.0604 7 22.5V21.0909Z" fill="white"/>
</svg>
