<svg width="248" height="256" viewBox="0 0 248 256" fill="none" xmlns="http://www.w3.org/2000/svg">
<path opacity="0.67" d="M77.3716 -88.9628C66.4025 -69.5482 50.4673 -35.6138 87.6511 -27.1413C130.911 -20.6904 127.431 -9.90526 127.409 27.8638C127.397 48.0972 126.29 60.6418 179.221 55.6313C224.147 53.8165 225.85 74.0003 208.634 108.096C193.296 138.472 210.63 139.772 255.714 151.832C289.037 160.746 299.457 162.723 304.629 163.994" stroke="white" stroke-width="8"/>
<path opacity="0.67" d="M26.3716 -51.9628C15.4025 -32.5482 -0.532702 1.38622 36.6511 9.85872C79.9113 16.3096 76.4312 27.0947 76.4088 64.8638C76.3969 85.0972 75.2901 97.6418 128.221 92.6313C173.147 90.8165 174.85 111 157.634 145.096C142.296 175.472 159.63 176.772 204.714 188.832C238.037 197.746 248.457 199.723 253.629 200.994" stroke="white" stroke-width="8"/>
</svg>
