<svg width="184" height="79" viewBox="0 0 184 79" fill="none" xmlns="http://www.w3.org/2000/svg">
<path opacity="0.7" d="M38.6792 100.355C22.118 96.0543 3.70055 82.0985 9.09217 62.5177C14.8888 41.5548 37.8638 48.4503 48.5517 57.6316C51.1066 59.8142 65.2132 74.3746 62.6944 78.7623C60.1755 83.1499 52.5552 72.7849 51.8361 71.2606C49.54 66.7851 47.8642 62.0172 46.8549 57.0888C44.5107 41.8803 54.1803 29.4623 70.118 29.3627C80.2414 29.2849 89.4286 34.4209 96.9762 40.8197C102.604 45.5969 122.666 67.4918 107.597 69.9789C101.193 71.046 100.468 69.4941 98.4112 63.4579C96.749 57.8816 96.5164 51.9767 97.7347 46.2883C99.6926 36.9681 105.73 27.1778 114.618 23.0861C125.426 18.1064 138.265 21.8222 146.821 29.195C149.977 31.8176 152.539 35.083 154.336 38.774C155.675 41.7568 161.857 66.8733 146.165 58.7C137.152 53.9894 142.674 37.959 145.247 31.0502C146.886 26.2125 149.113 21.5947 151.875 17.3004C157.542 9.0583 173.203 6.65036 182.293 9.78703C203.201 16.9953 220.727 48.6186 198.75 65.029C194.232 68.3883 199.461 70.8247 202.905 68.2646C243.048 38.3109 183.744 -22.2772 150.535 10.1349C140.102 20.2588 122.21 56.3926 142.444 65.2118C156.651 71.5003 166.5 53.9676 164.34 42.0099C160.728 22.073 137.105 11.2152 118.691 16.3281C109.654 19.1007 101.82 24.8538 96.4644 32.6521C91.1086 40.4503 88.5456 49.8351 89.1922 59.2805C90.4666 74.1914 106.105 88.6365 117.566 72.2123C130.417 53.7402 100.991 30.5829 85.6744 25.4763C67.1023 19.2554 41.2893 28.5556 38.5678 50.1797C36.6315 65.5827 50.3789 101.768 70.3285 86.4126C71.0712 85.826 72.4126 84.6537 72.2053 83.5138C67.517 58.5204 36.8483 27.9754 11.2035 48.3767C-14.4413 68.778 8.87128 99.5487 33.1977 105.876C36.2348 106.631 42.5814 101.393 38.624 100.366L38.6792 100.355Z" fill="white"/>
</svg>
